<mxfile host="app.diagrams.net" modified="2022-12-12T00:11:14.127Z" agent="5.0 (Macintosh; Intel Mac OS X 10_15_7) AppleWebKit/605.1.15 (KHTML, like Gecko) Version/16.1 Safari/605.1.15" etag="d6OJ98ux__5cCiVOCt42" version="20.6.2" type="github">
  <diagram id="QWmx-fH_kVRrVoqvVBay" name="Pagina-1">
    <mxGraphModel dx="3057" dy="2384" grid="1" gridSize="10" guides="1" tooltips="1" connect="1" arrows="1" fold="1" page="1" pageScale="1" pageWidth="827" pageHeight="1169" math="0" shadow="0">
      <root>
        <mxCell id="0" />
        <mxCell id="1" parent="0" />
        <mxCell id="e40BAH5m5hKkYkhLz0NS-443" value="" style="group;fontSize=40;fontStyle=1;" vertex="1" connectable="0" parent="1">
          <mxGeometry x="-1180" y="-380" width="1670" height="1220" as="geometry" />
        </mxCell>
        <mxCell id="e40BAH5m5hKkYkhLz0NS-298" value="" style="group" vertex="1" connectable="0" parent="e40BAH5m5hKkYkhLz0NS-443">
          <mxGeometry x="110" width="1560" height="500" as="geometry" />
        </mxCell>
        <mxCell id="e40BAH5m5hKkYkhLz0NS-299" value="" style="group" vertex="1" connectable="0" parent="e40BAH5m5hKkYkhLz0NS-298">
          <mxGeometry x="769.6263457884737" width="790.3736542115263" height="500" as="geometry" />
        </mxCell>
        <mxCell id="e40BAH5m5hKkYkhLz0NS-300" value="" style="group" vertex="1" connectable="0" parent="e40BAH5m5hKkYkhLz0NS-299">
          <mxGeometry x="385.3071564281191" width="405.0664977834072" height="500" as="geometry" />
        </mxCell>
        <mxCell id="e40BAH5m5hKkYkhLz0NS-301" value="" style="group" vertex="1" connectable="0" parent="e40BAH5m5hKkYkhLz0NS-300">
          <mxGeometry x="187.71374287523747" width="217.35275490816971" height="500" as="geometry" />
        </mxCell>
        <mxCell id="e40BAH5m5hKkYkhLz0NS-302" value="F4(tn)" style="shape=cube;whiteSpace=wrap;html=1;boundedLbl=1;backgroundOutline=1;darkOpacity=0.05;darkOpacity2=0.1;direction=east;" vertex="1" parent="e40BAH5m5hKkYkhLz0NS-301">
          <mxGeometry x="96.03958937802848" y="420" width="121.31316553014123" height="80" as="geometry" />
        </mxCell>
        <mxCell id="e40BAH5m5hKkYkhLz0NS-303" value="" style="shape=cube;whiteSpace=wrap;html=1;boundedLbl=1;backgroundOutline=1;darkOpacity=0.05;darkOpacity2=0.1;direction=east;" vertex="1" parent="e40BAH5m5hKkYkhLz0NS-301">
          <mxGeometry x="96.03958937802848" y="360" width="121.31316553014123" height="80" as="geometry" />
        </mxCell>
        <mxCell id="e40BAH5m5hKkYkhLz0NS-304" value="" style="shape=cube;whiteSpace=wrap;html=1;boundedLbl=1;backgroundOutline=1;darkOpacity=0.05;darkOpacity2=0.1;direction=east;" vertex="1" parent="e40BAH5m5hKkYkhLz0NS-301">
          <mxGeometry x="96.03958937802848" y="300" width="121.31316553014123" height="80" as="geometry" />
        </mxCell>
        <mxCell id="e40BAH5m5hKkYkhLz0NS-305" value="" style="shape=cube;whiteSpace=wrap;html=1;boundedLbl=1;backgroundOutline=1;darkOpacity=0.05;darkOpacity2=0.1;direction=east;" vertex="1" parent="e40BAH5m5hKkYkhLz0NS-301">
          <mxGeometry x="96.03958937802848" y="240" width="121.31316553014123" height="80" as="geometry" />
        </mxCell>
        <mxCell id="e40BAH5m5hKkYkhLz0NS-306" value="" style="shape=cube;whiteSpace=wrap;html=1;boundedLbl=1;backgroundOutline=1;darkOpacity=0.05;darkOpacity2=0.1;direction=east;" vertex="1" parent="e40BAH5m5hKkYkhLz0NS-301">
          <mxGeometry x="96.03958937802848" y="180" width="121.31316553014123" height="80" as="geometry" />
        </mxCell>
        <mxCell id="e40BAH5m5hKkYkhLz0NS-307" value="" style="shape=cube;whiteSpace=wrap;html=1;boundedLbl=1;backgroundOutline=1;darkOpacity=0.05;darkOpacity2=0.1;direction=east;" vertex="1" parent="e40BAH5m5hKkYkhLz0NS-301">
          <mxGeometry x="96.03958937802848" y="120" width="121.31316553014123" height="80" as="geometry" />
        </mxCell>
        <mxCell id="e40BAH5m5hKkYkhLz0NS-308" value="F4(t2)" style="shape=cube;whiteSpace=wrap;html=1;boundedLbl=1;backgroundOutline=1;darkOpacity=0.05;darkOpacity2=0.1;direction=east;" vertex="1" parent="e40BAH5m5hKkYkhLz0NS-301">
          <mxGeometry x="96.03958937802848" y="60" width="121.31316553014123" height="80" as="geometry" />
        </mxCell>
        <mxCell id="e40BAH5m5hKkYkhLz0NS-309" value="F4(t1)" style="shape=cube;whiteSpace=wrap;html=1;boundedLbl=1;backgroundOutline=1;darkOpacity=0.05;darkOpacity2=0.1;direction=east;fillColor=#d80073;fontColor=#ffffff;strokeColor=#A50040;" vertex="1" parent="e40BAH5m5hKkYkhLz0NS-301">
          <mxGeometry x="100" width="117.35" height="80" as="geometry" />
        </mxCell>
        <mxCell id="e40BAH5m5hKkYkhLz0NS-310" value="" style="shape=cube;whiteSpace=wrap;html=1;boundedLbl=1;backgroundOutline=1;darkOpacity=0.05;darkOpacity2=0.1;" vertex="1" parent="e40BAH5m5hKkYkhLz0NS-301">
          <mxGeometry y="420" width="121.31316553014123" height="80" as="geometry" />
        </mxCell>
        <mxCell id="e40BAH5m5hKkYkhLz0NS-311" value="" style="shape=cube;whiteSpace=wrap;html=1;boundedLbl=1;backgroundOutline=1;darkOpacity=0.05;darkOpacity2=0.1;" vertex="1" parent="e40BAH5m5hKkYkhLz0NS-301">
          <mxGeometry y="360" width="121.31316553014123" height="80" as="geometry" />
        </mxCell>
        <mxCell id="e40BAH5m5hKkYkhLz0NS-312" value="" style="shape=cube;whiteSpace=wrap;html=1;boundedLbl=1;backgroundOutline=1;darkOpacity=0.05;darkOpacity2=0.1;" vertex="1" parent="e40BAH5m5hKkYkhLz0NS-301">
          <mxGeometry y="300" width="121.31316553014123" height="80" as="geometry" />
        </mxCell>
        <mxCell id="e40BAH5m5hKkYkhLz0NS-313" value="" style="shape=cube;whiteSpace=wrap;html=1;boundedLbl=1;backgroundOutline=1;darkOpacity=0.05;darkOpacity2=0.1;" vertex="1" parent="e40BAH5m5hKkYkhLz0NS-301">
          <mxGeometry y="240" width="121.31316553014123" height="80" as="geometry" />
        </mxCell>
        <mxCell id="e40BAH5m5hKkYkhLz0NS-314" value="" style="shape=cube;whiteSpace=wrap;html=1;boundedLbl=1;backgroundOutline=1;darkOpacity=0.05;darkOpacity2=0.1;" vertex="1" parent="e40BAH5m5hKkYkhLz0NS-301">
          <mxGeometry y="180" width="121.31316553014123" height="80" as="geometry" />
        </mxCell>
        <mxCell id="e40BAH5m5hKkYkhLz0NS-315" value="" style="shape=cube;whiteSpace=wrap;html=1;boundedLbl=1;backgroundOutline=1;darkOpacity=0.05;darkOpacity2=0.1;" vertex="1" parent="e40BAH5m5hKkYkhLz0NS-301">
          <mxGeometry y="120" width="121.31316553014123" height="80" as="geometry" />
        </mxCell>
        <mxCell id="e40BAH5m5hKkYkhLz0NS-316" value="" style="shape=cube;whiteSpace=wrap;html=1;boundedLbl=1;backgroundOutline=1;darkOpacity=0.05;darkOpacity2=0.1;" vertex="1" parent="e40BAH5m5hKkYkhLz0NS-301">
          <mxGeometry y="60" width="121.31316553014123" height="80" as="geometry" />
        </mxCell>
        <mxCell id="e40BAH5m5hKkYkhLz0NS-317" value="" style="shape=cube;whiteSpace=wrap;html=1;boundedLbl=1;backgroundOutline=1;darkOpacity=0.05;darkOpacity2=0.1;" vertex="1" parent="e40BAH5m5hKkYkhLz0NS-301">
          <mxGeometry width="121.31316553014123" height="80" as="geometry" />
        </mxCell>
        <mxCell id="e40BAH5m5hKkYkhLz0NS-318" value="" style="group" vertex="1" connectable="0" parent="e40BAH5m5hKkYkhLz0NS-300">
          <mxGeometry width="212.41291956934768" height="500" as="geometry" />
        </mxCell>
        <mxCell id="e40BAH5m5hKkYkhLz0NS-319" value="" style="shape=cube;whiteSpace=wrap;html=1;boundedLbl=1;backgroundOutline=1;darkOpacity=0.05;darkOpacity2=0.1;direction=east;" vertex="1" parent="e40BAH5m5hKkYkhLz0NS-318">
          <mxGeometry x="93.85687143761874" y="420" width="118.55604813172893" height="80" as="geometry" />
        </mxCell>
        <mxCell id="e40BAH5m5hKkYkhLz0NS-320" value="" style="shape=cube;whiteSpace=wrap;html=1;boundedLbl=1;backgroundOutline=1;darkOpacity=0.05;darkOpacity2=0.1;direction=east;" vertex="1" parent="e40BAH5m5hKkYkhLz0NS-318">
          <mxGeometry x="93.85687143761874" y="360" width="118.55604813172893" height="80" as="geometry" />
        </mxCell>
        <mxCell id="e40BAH5m5hKkYkhLz0NS-321" value="" style="shape=cube;whiteSpace=wrap;html=1;boundedLbl=1;backgroundOutline=1;darkOpacity=0.05;darkOpacity2=0.1;direction=east;" vertex="1" parent="e40BAH5m5hKkYkhLz0NS-318">
          <mxGeometry x="93.85687143761874" y="300" width="118.55604813172893" height="80" as="geometry" />
        </mxCell>
        <mxCell id="e40BAH5m5hKkYkhLz0NS-322" value="" style="shape=cube;whiteSpace=wrap;html=1;boundedLbl=1;backgroundOutline=1;darkOpacity=0.05;darkOpacity2=0.1;direction=east;" vertex="1" parent="e40BAH5m5hKkYkhLz0NS-318">
          <mxGeometry x="93.85687143761874" y="240" width="118.55604813172893" height="80" as="geometry" />
        </mxCell>
        <mxCell id="e40BAH5m5hKkYkhLz0NS-323" value="" style="shape=cube;whiteSpace=wrap;html=1;boundedLbl=1;backgroundOutline=1;darkOpacity=0.05;darkOpacity2=0.1;direction=east;" vertex="1" parent="e40BAH5m5hKkYkhLz0NS-318">
          <mxGeometry x="93.85687143761874" y="180" width="118.55604813172893" height="80" as="geometry" />
        </mxCell>
        <mxCell id="e40BAH5m5hKkYkhLz0NS-324" value="" style="shape=cube;whiteSpace=wrap;html=1;boundedLbl=1;backgroundOutline=1;darkOpacity=0.05;darkOpacity2=0.1;direction=east;" vertex="1" parent="e40BAH5m5hKkYkhLz0NS-318">
          <mxGeometry x="93.85687143761874" y="120" width="118.55604813172893" height="80" as="geometry" />
        </mxCell>
        <mxCell id="e40BAH5m5hKkYkhLz0NS-325" value="" style="shape=cube;whiteSpace=wrap;html=1;boundedLbl=1;backgroundOutline=1;darkOpacity=0.05;darkOpacity2=0.1;direction=east;" vertex="1" parent="e40BAH5m5hKkYkhLz0NS-318">
          <mxGeometry x="93.85687143761874" y="60" width="118.55604813172893" height="80" as="geometry" />
        </mxCell>
        <mxCell id="e40BAH5m5hKkYkhLz0NS-326" value="" style="shape=cube;whiteSpace=wrap;html=1;boundedLbl=1;backgroundOutline=1;darkOpacity=0.05;darkOpacity2=0.1;direction=east;" vertex="1" parent="e40BAH5m5hKkYkhLz0NS-318">
          <mxGeometry x="93.85687143761874" width="118.55604813172893" height="80" as="geometry" />
        </mxCell>
        <mxCell id="e40BAH5m5hKkYkhLz0NS-327" value="" style="shape=cube;whiteSpace=wrap;html=1;boundedLbl=1;backgroundOutline=1;darkOpacity=0.05;darkOpacity2=0.1;" vertex="1" parent="e40BAH5m5hKkYkhLz0NS-318">
          <mxGeometry y="420" width="118.55604813172893" height="80" as="geometry" />
        </mxCell>
        <mxCell id="e40BAH5m5hKkYkhLz0NS-328" value="" style="shape=cube;whiteSpace=wrap;html=1;boundedLbl=1;backgroundOutline=1;darkOpacity=0.05;darkOpacity2=0.1;" vertex="1" parent="e40BAH5m5hKkYkhLz0NS-318">
          <mxGeometry y="360" width="118.55604813172893" height="80" as="geometry" />
        </mxCell>
        <mxCell id="e40BAH5m5hKkYkhLz0NS-329" value="" style="shape=cube;whiteSpace=wrap;html=1;boundedLbl=1;backgroundOutline=1;darkOpacity=0.05;darkOpacity2=0.1;" vertex="1" parent="e40BAH5m5hKkYkhLz0NS-318">
          <mxGeometry y="300" width="118.55604813172893" height="80" as="geometry" />
        </mxCell>
        <mxCell id="e40BAH5m5hKkYkhLz0NS-330" value="" style="shape=cube;whiteSpace=wrap;html=1;boundedLbl=1;backgroundOutline=1;darkOpacity=0.05;darkOpacity2=0.1;" vertex="1" parent="e40BAH5m5hKkYkhLz0NS-318">
          <mxGeometry y="240" width="118.55604813172893" height="80" as="geometry" />
        </mxCell>
        <mxCell id="e40BAH5m5hKkYkhLz0NS-331" value="" style="shape=cube;whiteSpace=wrap;html=1;boundedLbl=1;backgroundOutline=1;darkOpacity=0.05;darkOpacity2=0.1;" vertex="1" parent="e40BAH5m5hKkYkhLz0NS-318">
          <mxGeometry y="180" width="118.55604813172893" height="80" as="geometry" />
        </mxCell>
        <mxCell id="e40BAH5m5hKkYkhLz0NS-332" value="" style="shape=cube;whiteSpace=wrap;html=1;boundedLbl=1;backgroundOutline=1;darkOpacity=0.05;darkOpacity2=0.1;" vertex="1" parent="e40BAH5m5hKkYkhLz0NS-318">
          <mxGeometry y="120" width="118.55604813172893" height="80" as="geometry" />
        </mxCell>
        <mxCell id="e40BAH5m5hKkYkhLz0NS-333" value="" style="shape=cube;whiteSpace=wrap;html=1;boundedLbl=1;backgroundOutline=1;darkOpacity=0.05;darkOpacity2=0.1;" vertex="1" parent="e40BAH5m5hKkYkhLz0NS-318">
          <mxGeometry y="60" width="118.55604813172893" height="80" as="geometry" />
        </mxCell>
        <mxCell id="e40BAH5m5hKkYkhLz0NS-334" value="R(t1)" style="shape=cube;whiteSpace=wrap;html=1;boundedLbl=1;backgroundOutline=1;darkOpacity=0.05;darkOpacity2=0.1;" vertex="1" parent="e40BAH5m5hKkYkhLz0NS-318">
          <mxGeometry width="118.55604813172893" height="80" as="geometry" />
        </mxCell>
        <mxCell id="e40BAH5m5hKkYkhLz0NS-335" value="" style="group" vertex="1" connectable="0" parent="e40BAH5m5hKkYkhLz0NS-299">
          <mxGeometry width="405.0664977834072" height="500" as="geometry" />
        </mxCell>
        <mxCell id="e40BAH5m5hKkYkhLz0NS-336" value="" style="group" vertex="1" connectable="0" parent="e40BAH5m5hKkYkhLz0NS-335">
          <mxGeometry x="187.71374287523747" width="217.35275490816971" height="500" as="geometry" />
        </mxCell>
        <mxCell id="e40BAH5m5hKkYkhLz0NS-337" value="" style="shape=cube;whiteSpace=wrap;html=1;boundedLbl=1;backgroundOutline=1;darkOpacity=0.05;darkOpacity2=0.1;direction=east;" vertex="1" parent="e40BAH5m5hKkYkhLz0NS-336">
          <mxGeometry x="96.03958937802848" y="420" width="121.31316553014123" height="80" as="geometry" />
        </mxCell>
        <mxCell id="e40BAH5m5hKkYkhLz0NS-338" value="" style="shape=cube;whiteSpace=wrap;html=1;boundedLbl=1;backgroundOutline=1;darkOpacity=0.05;darkOpacity2=0.1;direction=east;" vertex="1" parent="e40BAH5m5hKkYkhLz0NS-336">
          <mxGeometry x="96.03958937802848" y="360" width="121.31316553014123" height="80" as="geometry" />
        </mxCell>
        <mxCell id="e40BAH5m5hKkYkhLz0NS-339" value="" style="shape=cube;whiteSpace=wrap;html=1;boundedLbl=1;backgroundOutline=1;darkOpacity=0.05;darkOpacity2=0.1;direction=east;" vertex="1" parent="e40BAH5m5hKkYkhLz0NS-336">
          <mxGeometry x="96.03958937802848" y="300" width="121.31316553014123" height="80" as="geometry" />
        </mxCell>
        <mxCell id="e40BAH5m5hKkYkhLz0NS-340" value="" style="shape=cube;whiteSpace=wrap;html=1;boundedLbl=1;backgroundOutline=1;darkOpacity=0.05;darkOpacity2=0.1;direction=east;" vertex="1" parent="e40BAH5m5hKkYkhLz0NS-336">
          <mxGeometry x="96.03958937802848" y="240" width="121.31316553014123" height="80" as="geometry" />
        </mxCell>
        <mxCell id="e40BAH5m5hKkYkhLz0NS-341" value="" style="shape=cube;whiteSpace=wrap;html=1;boundedLbl=1;backgroundOutline=1;darkOpacity=0.05;darkOpacity2=0.1;direction=east;" vertex="1" parent="e40BAH5m5hKkYkhLz0NS-336">
          <mxGeometry x="96.03958937802848" y="180" width="121.31316553014123" height="80" as="geometry" />
        </mxCell>
        <mxCell id="e40BAH5m5hKkYkhLz0NS-342" value="" style="shape=cube;whiteSpace=wrap;html=1;boundedLbl=1;backgroundOutline=1;darkOpacity=0.05;darkOpacity2=0.1;direction=east;" vertex="1" parent="e40BAH5m5hKkYkhLz0NS-336">
          <mxGeometry x="96.03958937802848" y="120" width="121.31316553014123" height="80" as="geometry" />
        </mxCell>
        <mxCell id="e40BAH5m5hKkYkhLz0NS-343" value="" style="shape=cube;whiteSpace=wrap;html=1;boundedLbl=1;backgroundOutline=1;darkOpacity=0.05;darkOpacity2=0.1;direction=east;" vertex="1" parent="e40BAH5m5hKkYkhLz0NS-336">
          <mxGeometry x="96.03958937802848" y="60" width="121.31316553014123" height="80" as="geometry" />
        </mxCell>
        <mxCell id="e40BAH5m5hKkYkhLz0NS-344" value="Q(t1)" style="shape=cube;whiteSpace=wrap;html=1;boundedLbl=1;backgroundOutline=1;darkOpacity=0.05;darkOpacity2=0.1;direction=east;" vertex="1" parent="e40BAH5m5hKkYkhLz0NS-336">
          <mxGeometry x="96.03958937802848" width="121.31316553014123" height="80" as="geometry" />
        </mxCell>
        <mxCell id="e40BAH5m5hKkYkhLz0NS-345" value="" style="shape=cube;whiteSpace=wrap;html=1;boundedLbl=1;backgroundOutline=1;darkOpacity=0.05;darkOpacity2=0.1;" vertex="1" parent="e40BAH5m5hKkYkhLz0NS-336">
          <mxGeometry y="420" width="121.31316553014123" height="80" as="geometry" />
        </mxCell>
        <mxCell id="e40BAH5m5hKkYkhLz0NS-346" value="" style="shape=cube;whiteSpace=wrap;html=1;boundedLbl=1;backgroundOutline=1;darkOpacity=0.05;darkOpacity2=0.1;" vertex="1" parent="e40BAH5m5hKkYkhLz0NS-336">
          <mxGeometry y="360" width="121.31316553014123" height="80" as="geometry" />
        </mxCell>
        <mxCell id="e40BAH5m5hKkYkhLz0NS-347" value="" style="shape=cube;whiteSpace=wrap;html=1;boundedLbl=1;backgroundOutline=1;darkOpacity=0.05;darkOpacity2=0.1;" vertex="1" parent="e40BAH5m5hKkYkhLz0NS-336">
          <mxGeometry y="300" width="121.31316553014123" height="80" as="geometry" />
        </mxCell>
        <mxCell id="e40BAH5m5hKkYkhLz0NS-348" value="" style="shape=cube;whiteSpace=wrap;html=1;boundedLbl=1;backgroundOutline=1;darkOpacity=0.05;darkOpacity2=0.1;" vertex="1" parent="e40BAH5m5hKkYkhLz0NS-336">
          <mxGeometry y="240" width="121.31316553014123" height="80" as="geometry" />
        </mxCell>
        <mxCell id="e40BAH5m5hKkYkhLz0NS-349" value="" style="shape=cube;whiteSpace=wrap;html=1;boundedLbl=1;backgroundOutline=1;darkOpacity=0.05;darkOpacity2=0.1;" vertex="1" parent="e40BAH5m5hKkYkhLz0NS-336">
          <mxGeometry y="180" width="121.31316553014123" height="80" as="geometry" />
        </mxCell>
        <mxCell id="e40BAH5m5hKkYkhLz0NS-350" value="" style="shape=cube;whiteSpace=wrap;html=1;boundedLbl=1;backgroundOutline=1;darkOpacity=0.05;darkOpacity2=0.1;" vertex="1" parent="e40BAH5m5hKkYkhLz0NS-336">
          <mxGeometry y="120" width="121.31316553014123" height="80" as="geometry" />
        </mxCell>
        <mxCell id="e40BAH5m5hKkYkhLz0NS-351" value="" style="shape=cube;whiteSpace=wrap;html=1;boundedLbl=1;backgroundOutline=1;darkOpacity=0.05;darkOpacity2=0.1;" vertex="1" parent="e40BAH5m5hKkYkhLz0NS-336">
          <mxGeometry y="60" width="121.31316553014123" height="80" as="geometry" />
        </mxCell>
        <mxCell id="e40BAH5m5hKkYkhLz0NS-352" value="P(t1)" style="shape=cube;whiteSpace=wrap;html=1;boundedLbl=1;backgroundOutline=1;darkOpacity=0.05;darkOpacity2=0.1;" vertex="1" parent="e40BAH5m5hKkYkhLz0NS-336">
          <mxGeometry width="121.31316553014123" height="80" as="geometry" />
        </mxCell>
        <mxCell id="e40BAH5m5hKkYkhLz0NS-353" value="" style="group" vertex="1" connectable="0" parent="e40BAH5m5hKkYkhLz0NS-335">
          <mxGeometry width="212.41291956934768" height="500" as="geometry" />
        </mxCell>
        <mxCell id="e40BAH5m5hKkYkhLz0NS-354" value="" style="shape=cube;whiteSpace=wrap;html=1;boundedLbl=1;backgroundOutline=1;darkOpacity=0.05;darkOpacity2=0.1;direction=east;" vertex="1" parent="e40BAH5m5hKkYkhLz0NS-353">
          <mxGeometry x="93.85687143761874" y="420" width="118.55604813172893" height="80" as="geometry" />
        </mxCell>
        <mxCell id="e40BAH5m5hKkYkhLz0NS-355" value="" style="shape=cube;whiteSpace=wrap;html=1;boundedLbl=1;backgroundOutline=1;darkOpacity=0.05;darkOpacity2=0.1;direction=east;" vertex="1" parent="e40BAH5m5hKkYkhLz0NS-353">
          <mxGeometry x="93.85687143761874" y="360" width="118.55604813172893" height="80" as="geometry" />
        </mxCell>
        <mxCell id="e40BAH5m5hKkYkhLz0NS-356" value="" style="shape=cube;whiteSpace=wrap;html=1;boundedLbl=1;backgroundOutline=1;darkOpacity=0.05;darkOpacity2=0.1;direction=east;" vertex="1" parent="e40BAH5m5hKkYkhLz0NS-353">
          <mxGeometry x="93.85687143761874" y="300" width="118.55604813172893" height="80" as="geometry" />
        </mxCell>
        <mxCell id="e40BAH5m5hKkYkhLz0NS-357" value="" style="shape=cube;whiteSpace=wrap;html=1;boundedLbl=1;backgroundOutline=1;darkOpacity=0.05;darkOpacity2=0.1;direction=east;" vertex="1" parent="e40BAH5m5hKkYkhLz0NS-353">
          <mxGeometry x="93.85687143761874" y="240" width="118.55604813172893" height="80" as="geometry" />
        </mxCell>
        <mxCell id="e40BAH5m5hKkYkhLz0NS-358" value="" style="shape=cube;whiteSpace=wrap;html=1;boundedLbl=1;backgroundOutline=1;darkOpacity=0.05;darkOpacity2=0.1;direction=east;" vertex="1" parent="e40BAH5m5hKkYkhLz0NS-353">
          <mxGeometry x="93.85687143761874" y="180" width="118.55604813172893" height="80" as="geometry" />
        </mxCell>
        <mxCell id="e40BAH5m5hKkYkhLz0NS-359" value="" style="shape=cube;whiteSpace=wrap;html=1;boundedLbl=1;backgroundOutline=1;darkOpacity=0.05;darkOpacity2=0.1;direction=east;" vertex="1" parent="e40BAH5m5hKkYkhLz0NS-353">
          <mxGeometry x="93.85687143761874" y="120" width="118.55604813172893" height="80" as="geometry" />
        </mxCell>
        <mxCell id="e40BAH5m5hKkYkhLz0NS-360" value="" style="shape=cube;whiteSpace=wrap;html=1;boundedLbl=1;backgroundOutline=1;darkOpacity=0.05;darkOpacity2=0.1;direction=east;" vertex="1" parent="e40BAH5m5hKkYkhLz0NS-353">
          <mxGeometry x="93.85687143761874" y="60" width="118.55604813172893" height="80" as="geometry" />
        </mxCell>
        <mxCell id="e40BAH5m5hKkYkhLz0NS-361" value="Yaw(t1)" style="shape=cube;whiteSpace=wrap;html=1;boundedLbl=1;backgroundOutline=1;darkOpacity=0.05;darkOpacity2=0.1;direction=east;" vertex="1" parent="e40BAH5m5hKkYkhLz0NS-353">
          <mxGeometry x="93.85687143761874" width="118.55604813172893" height="80" as="geometry" />
        </mxCell>
        <mxCell id="e40BAH5m5hKkYkhLz0NS-362" value="" style="shape=cube;whiteSpace=wrap;html=1;boundedLbl=1;backgroundOutline=1;darkOpacity=0.05;darkOpacity2=0.1;" vertex="1" parent="e40BAH5m5hKkYkhLz0NS-353">
          <mxGeometry y="420" width="118.55604813172893" height="80" as="geometry" />
        </mxCell>
        <mxCell id="e40BAH5m5hKkYkhLz0NS-363" value="" style="shape=cube;whiteSpace=wrap;html=1;boundedLbl=1;backgroundOutline=1;darkOpacity=0.05;darkOpacity2=0.1;" vertex="1" parent="e40BAH5m5hKkYkhLz0NS-353">
          <mxGeometry y="360" width="118.55604813172893" height="80" as="geometry" />
        </mxCell>
        <mxCell id="e40BAH5m5hKkYkhLz0NS-364" value="" style="shape=cube;whiteSpace=wrap;html=1;boundedLbl=1;backgroundOutline=1;darkOpacity=0.05;darkOpacity2=0.1;" vertex="1" parent="e40BAH5m5hKkYkhLz0NS-353">
          <mxGeometry y="300" width="118.55604813172893" height="80" as="geometry" />
        </mxCell>
        <mxCell id="e40BAH5m5hKkYkhLz0NS-365" value="" style="shape=cube;whiteSpace=wrap;html=1;boundedLbl=1;backgroundOutline=1;darkOpacity=0.05;darkOpacity2=0.1;" vertex="1" parent="e40BAH5m5hKkYkhLz0NS-353">
          <mxGeometry y="240" width="118.55604813172893" height="80" as="geometry" />
        </mxCell>
        <mxCell id="e40BAH5m5hKkYkhLz0NS-366" value="" style="shape=cube;whiteSpace=wrap;html=1;boundedLbl=1;backgroundOutline=1;darkOpacity=0.05;darkOpacity2=0.1;" vertex="1" parent="e40BAH5m5hKkYkhLz0NS-353">
          <mxGeometry y="180" width="118.55604813172893" height="80" as="geometry" />
        </mxCell>
        <mxCell id="e40BAH5m5hKkYkhLz0NS-367" value="" style="shape=cube;whiteSpace=wrap;html=1;boundedLbl=1;backgroundOutline=1;darkOpacity=0.05;darkOpacity2=0.1;" vertex="1" parent="e40BAH5m5hKkYkhLz0NS-353">
          <mxGeometry y="120" width="118.55604813172893" height="80" as="geometry" />
        </mxCell>
        <mxCell id="e40BAH5m5hKkYkhLz0NS-368" value="" style="shape=cube;whiteSpace=wrap;html=1;boundedLbl=1;backgroundOutline=1;darkOpacity=0.05;darkOpacity2=0.1;" vertex="1" parent="e40BAH5m5hKkYkhLz0NS-353">
          <mxGeometry y="60" width="118.55604813172893" height="80" as="geometry" />
        </mxCell>
        <mxCell id="e40BAH5m5hKkYkhLz0NS-369" value="Pitch(t1)" style="shape=cube;whiteSpace=wrap;html=1;boundedLbl=1;backgroundOutline=1;darkOpacity=0.05;darkOpacity2=0.1;" vertex="1" parent="e40BAH5m5hKkYkhLz0NS-353">
          <mxGeometry width="118.55604813172893" height="80" as="geometry" />
        </mxCell>
        <mxCell id="e40BAH5m5hKkYkhLz0NS-370" value="A" style="group" vertex="1" connectable="0" parent="e40BAH5m5hKkYkhLz0NS-298">
          <mxGeometry width="790.3736542115263" height="500" as="geometry" />
        </mxCell>
        <mxCell id="e40BAH5m5hKkYkhLz0NS-371" value="" style="group" vertex="1" connectable="0" parent="e40BAH5m5hKkYkhLz0NS-370">
          <mxGeometry x="385.3071564281191" width="405.0664977834072" height="500" as="geometry" />
        </mxCell>
        <mxCell id="e40BAH5m5hKkYkhLz0NS-372" value="" style="group" vertex="1" connectable="0" parent="e40BAH5m5hKkYkhLz0NS-371">
          <mxGeometry x="187.71374287523747" width="217.35275490816971" height="500" as="geometry" />
        </mxCell>
        <mxCell id="e40BAH5m5hKkYkhLz0NS-373" value="" style="shape=cube;whiteSpace=wrap;html=1;boundedLbl=1;backgroundOutline=1;darkOpacity=0.05;darkOpacity2=0.1;direction=east;" vertex="1" parent="e40BAH5m5hKkYkhLz0NS-372">
          <mxGeometry x="96.03958937802848" y="420" width="121.31316553014123" height="80" as="geometry" />
        </mxCell>
        <mxCell id="e40BAH5m5hKkYkhLz0NS-374" value="" style="shape=cube;whiteSpace=wrap;html=1;boundedLbl=1;backgroundOutline=1;darkOpacity=0.05;darkOpacity2=0.1;direction=east;" vertex="1" parent="e40BAH5m5hKkYkhLz0NS-372">
          <mxGeometry x="96.03958937802848" y="360" width="121.31316553014123" height="80" as="geometry" />
        </mxCell>
        <mxCell id="e40BAH5m5hKkYkhLz0NS-375" value="" style="shape=cube;whiteSpace=wrap;html=1;boundedLbl=1;backgroundOutline=1;darkOpacity=0.05;darkOpacity2=0.1;direction=east;" vertex="1" parent="e40BAH5m5hKkYkhLz0NS-372">
          <mxGeometry x="96.03958937802848" y="300" width="121.31316553014123" height="80" as="geometry" />
        </mxCell>
        <mxCell id="e40BAH5m5hKkYkhLz0NS-376" value="" style="shape=cube;whiteSpace=wrap;html=1;boundedLbl=1;backgroundOutline=1;darkOpacity=0.05;darkOpacity2=0.1;direction=east;" vertex="1" parent="e40BAH5m5hKkYkhLz0NS-372">
          <mxGeometry x="96.03958937802848" y="240" width="121.31316553014123" height="80" as="geometry" />
        </mxCell>
        <mxCell id="e40BAH5m5hKkYkhLz0NS-377" value="" style="shape=cube;whiteSpace=wrap;html=1;boundedLbl=1;backgroundOutline=1;darkOpacity=0.05;darkOpacity2=0.1;direction=east;" vertex="1" parent="e40BAH5m5hKkYkhLz0NS-372">
          <mxGeometry x="96.03958937802848" y="180" width="121.31316553014123" height="80" as="geometry" />
        </mxCell>
        <mxCell id="e40BAH5m5hKkYkhLz0NS-378" value="" style="shape=cube;whiteSpace=wrap;html=1;boundedLbl=1;backgroundOutline=1;darkOpacity=0.05;darkOpacity2=0.1;direction=east;" vertex="1" parent="e40BAH5m5hKkYkhLz0NS-372">
          <mxGeometry x="96.03958937802848" y="120" width="121.31316553014123" height="80" as="geometry" />
        </mxCell>
        <mxCell id="e40BAH5m5hKkYkhLz0NS-379" value="" style="shape=cube;whiteSpace=wrap;html=1;boundedLbl=1;backgroundOutline=1;darkOpacity=0.05;darkOpacity2=0.1;direction=east;" vertex="1" parent="e40BAH5m5hKkYkhLz0NS-372">
          <mxGeometry x="96.03958937802848" y="60" width="121.31316553014123" height="80" as="geometry" />
        </mxCell>
        <mxCell id="e40BAH5m5hKkYkhLz0NS-380" value="Roll(t1)" style="shape=cube;whiteSpace=wrap;html=1;boundedLbl=1;backgroundOutline=1;darkOpacity=0.05;darkOpacity2=0.1;direction=east;" vertex="1" parent="e40BAH5m5hKkYkhLz0NS-372">
          <mxGeometry x="96.03958937802848" width="121.31316553014123" height="80" as="geometry" />
        </mxCell>
        <mxCell id="e40BAH5m5hKkYkhLz0NS-381" value="" style="shape=cube;whiteSpace=wrap;html=1;boundedLbl=1;backgroundOutline=1;darkOpacity=0.05;darkOpacity2=0.1;" vertex="1" parent="e40BAH5m5hKkYkhLz0NS-372">
          <mxGeometry y="420" width="121.31316553014123" height="80" as="geometry" />
        </mxCell>
        <mxCell id="e40BAH5m5hKkYkhLz0NS-382" value="" style="shape=cube;whiteSpace=wrap;html=1;boundedLbl=1;backgroundOutline=1;darkOpacity=0.05;darkOpacity2=0.1;" vertex="1" parent="e40BAH5m5hKkYkhLz0NS-372">
          <mxGeometry y="360" width="121.31316553014123" height="80" as="geometry" />
        </mxCell>
        <mxCell id="e40BAH5m5hKkYkhLz0NS-383" value="" style="shape=cube;whiteSpace=wrap;html=1;boundedLbl=1;backgroundOutline=1;darkOpacity=0.05;darkOpacity2=0.1;" vertex="1" parent="e40BAH5m5hKkYkhLz0NS-372">
          <mxGeometry y="300" width="121.31316553014123" height="80" as="geometry" />
        </mxCell>
        <mxCell id="e40BAH5m5hKkYkhLz0NS-384" value="" style="shape=cube;whiteSpace=wrap;html=1;boundedLbl=1;backgroundOutline=1;darkOpacity=0.05;darkOpacity2=0.1;" vertex="1" parent="e40BAH5m5hKkYkhLz0NS-372">
          <mxGeometry y="240" width="121.31316553014123" height="80" as="geometry" />
        </mxCell>
        <mxCell id="e40BAH5m5hKkYkhLz0NS-385" value="" style="shape=cube;whiteSpace=wrap;html=1;boundedLbl=1;backgroundOutline=1;darkOpacity=0.05;darkOpacity2=0.1;" vertex="1" parent="e40BAH5m5hKkYkhLz0NS-372">
          <mxGeometry y="180" width="121.31316553014123" height="80" as="geometry" />
        </mxCell>
        <mxCell id="e40BAH5m5hKkYkhLz0NS-386" value="" style="shape=cube;whiteSpace=wrap;html=1;boundedLbl=1;backgroundOutline=1;darkOpacity=0.05;darkOpacity2=0.1;" vertex="1" parent="e40BAH5m5hKkYkhLz0NS-372">
          <mxGeometry y="120" width="121.31316553014123" height="80" as="geometry" />
        </mxCell>
        <mxCell id="e40BAH5m5hKkYkhLz0NS-387" value="" style="shape=cube;whiteSpace=wrap;html=1;boundedLbl=1;backgroundOutline=1;darkOpacity=0.05;darkOpacity2=0.1;" vertex="1" parent="e40BAH5m5hKkYkhLz0NS-372">
          <mxGeometry y="60" width="121.31316553014123" height="80" as="geometry" />
        </mxCell>
        <mxCell id="e40BAH5m5hKkYkhLz0NS-388" value="W(t1)" style="shape=cube;whiteSpace=wrap;html=1;boundedLbl=1;backgroundOutline=1;darkOpacity=0.05;darkOpacity2=0.1;" vertex="1" parent="e40BAH5m5hKkYkhLz0NS-372">
          <mxGeometry width="121.31316553014123" height="80" as="geometry" />
        </mxCell>
        <mxCell id="e40BAH5m5hKkYkhLz0NS-389" value="" style="group" vertex="1" connectable="0" parent="e40BAH5m5hKkYkhLz0NS-371">
          <mxGeometry width="212.41291956934768" height="500" as="geometry" />
        </mxCell>
        <mxCell id="e40BAH5m5hKkYkhLz0NS-390" value="" style="shape=cube;whiteSpace=wrap;html=1;boundedLbl=1;backgroundOutline=1;darkOpacity=0.05;darkOpacity2=0.1;direction=east;" vertex="1" parent="e40BAH5m5hKkYkhLz0NS-389">
          <mxGeometry x="93.85687143761874" y="420" width="118.55604813172893" height="80" as="geometry" />
        </mxCell>
        <mxCell id="e40BAH5m5hKkYkhLz0NS-391" value="" style="shape=cube;whiteSpace=wrap;html=1;boundedLbl=1;backgroundOutline=1;darkOpacity=0.05;darkOpacity2=0.1;direction=east;" vertex="1" parent="e40BAH5m5hKkYkhLz0NS-389">
          <mxGeometry x="93.85687143761874" y="360" width="118.55604813172893" height="80" as="geometry" />
        </mxCell>
        <mxCell id="e40BAH5m5hKkYkhLz0NS-392" value="" style="shape=cube;whiteSpace=wrap;html=1;boundedLbl=1;backgroundOutline=1;darkOpacity=0.05;darkOpacity2=0.1;direction=east;" vertex="1" parent="e40BAH5m5hKkYkhLz0NS-389">
          <mxGeometry x="93.85687143761874" y="300" width="118.55604813172893" height="80" as="geometry" />
        </mxCell>
        <mxCell id="e40BAH5m5hKkYkhLz0NS-393" value="" style="shape=cube;whiteSpace=wrap;html=1;boundedLbl=1;backgroundOutline=1;darkOpacity=0.05;darkOpacity2=0.1;direction=east;" vertex="1" parent="e40BAH5m5hKkYkhLz0NS-389">
          <mxGeometry x="93.85687143761874" y="240" width="118.55604813172893" height="80" as="geometry" />
        </mxCell>
        <mxCell id="e40BAH5m5hKkYkhLz0NS-394" value="" style="shape=cube;whiteSpace=wrap;html=1;boundedLbl=1;backgroundOutline=1;darkOpacity=0.05;darkOpacity2=0.1;direction=east;" vertex="1" parent="e40BAH5m5hKkYkhLz0NS-389">
          <mxGeometry x="93.85687143761874" y="180" width="118.55604813172893" height="80" as="geometry" />
        </mxCell>
        <mxCell id="e40BAH5m5hKkYkhLz0NS-395" value="" style="shape=cube;whiteSpace=wrap;html=1;boundedLbl=1;backgroundOutline=1;darkOpacity=0.05;darkOpacity2=0.1;direction=east;" vertex="1" parent="e40BAH5m5hKkYkhLz0NS-389">
          <mxGeometry x="93.85687143761874" y="120" width="118.55604813172893" height="80" as="geometry" />
        </mxCell>
        <mxCell id="e40BAH5m5hKkYkhLz0NS-396" value="" style="shape=cube;whiteSpace=wrap;html=1;boundedLbl=1;backgroundOutline=1;darkOpacity=0.05;darkOpacity2=0.1;direction=east;" vertex="1" parent="e40BAH5m5hKkYkhLz0NS-389">
          <mxGeometry x="93.85687143761874" y="60" width="118.55604813172893" height="80" as="geometry" />
        </mxCell>
        <mxCell id="e40BAH5m5hKkYkhLz0NS-397" value="V(t1)" style="shape=cube;whiteSpace=wrap;html=1;boundedLbl=1;backgroundOutline=1;darkOpacity=0.05;darkOpacity2=0.1;direction=east;" vertex="1" parent="e40BAH5m5hKkYkhLz0NS-389">
          <mxGeometry x="93.85687143761874" width="118.55604813172893" height="80" as="geometry" />
        </mxCell>
        <mxCell id="e40BAH5m5hKkYkhLz0NS-398" value="" style="shape=cube;whiteSpace=wrap;html=1;boundedLbl=1;backgroundOutline=1;darkOpacity=0.05;darkOpacity2=0.1;" vertex="1" parent="e40BAH5m5hKkYkhLz0NS-389">
          <mxGeometry y="420" width="118.55604813172893" height="80" as="geometry" />
        </mxCell>
        <mxCell id="e40BAH5m5hKkYkhLz0NS-399" value="" style="shape=cube;whiteSpace=wrap;html=1;boundedLbl=1;backgroundOutline=1;darkOpacity=0.05;darkOpacity2=0.1;" vertex="1" parent="e40BAH5m5hKkYkhLz0NS-389">
          <mxGeometry y="360" width="118.55604813172893" height="80" as="geometry" />
        </mxCell>
        <mxCell id="e40BAH5m5hKkYkhLz0NS-400" value="" style="shape=cube;whiteSpace=wrap;html=1;boundedLbl=1;backgroundOutline=1;darkOpacity=0.05;darkOpacity2=0.1;" vertex="1" parent="e40BAH5m5hKkYkhLz0NS-389">
          <mxGeometry y="300" width="118.55604813172893" height="80" as="geometry" />
        </mxCell>
        <mxCell id="e40BAH5m5hKkYkhLz0NS-401" value="" style="shape=cube;whiteSpace=wrap;html=1;boundedLbl=1;backgroundOutline=1;darkOpacity=0.05;darkOpacity2=0.1;" vertex="1" parent="e40BAH5m5hKkYkhLz0NS-389">
          <mxGeometry y="240" width="118.55604813172893" height="80" as="geometry" />
        </mxCell>
        <mxCell id="e40BAH5m5hKkYkhLz0NS-402" value="" style="shape=cube;whiteSpace=wrap;html=1;boundedLbl=1;backgroundOutline=1;darkOpacity=0.05;darkOpacity2=0.1;" vertex="1" parent="e40BAH5m5hKkYkhLz0NS-389">
          <mxGeometry y="180" width="118.55604813172893" height="80" as="geometry" />
        </mxCell>
        <mxCell id="e40BAH5m5hKkYkhLz0NS-403" value="" style="shape=cube;whiteSpace=wrap;html=1;boundedLbl=1;backgroundOutline=1;darkOpacity=0.05;darkOpacity2=0.1;" vertex="1" parent="e40BAH5m5hKkYkhLz0NS-389">
          <mxGeometry y="120" width="118.55604813172893" height="80" as="geometry" />
        </mxCell>
        <mxCell id="e40BAH5m5hKkYkhLz0NS-404" value="" style="shape=cube;whiteSpace=wrap;html=1;boundedLbl=1;backgroundOutline=1;darkOpacity=0.05;darkOpacity2=0.1;" vertex="1" parent="e40BAH5m5hKkYkhLz0NS-389">
          <mxGeometry y="60" width="118.55604813172893" height="80" as="geometry" />
        </mxCell>
        <mxCell id="e40BAH5m5hKkYkhLz0NS-405" value="U(t1)" style="shape=cube;whiteSpace=wrap;html=1;boundedLbl=1;backgroundOutline=1;darkOpacity=0.05;darkOpacity2=0.1;" vertex="1" parent="e40BAH5m5hKkYkhLz0NS-389">
          <mxGeometry width="118.55604813172893" height="80" as="geometry" />
        </mxCell>
        <mxCell id="e40BAH5m5hKkYkhLz0NS-406" value="" style="group" vertex="1" connectable="0" parent="e40BAH5m5hKkYkhLz0NS-370">
          <mxGeometry width="405.0664977834072" height="500" as="geometry" />
        </mxCell>
        <mxCell id="e40BAH5m5hKkYkhLz0NS-407" value="" style="group" vertex="1" connectable="0" parent="e40BAH5m5hKkYkhLz0NS-406">
          <mxGeometry x="187.71374287523747" width="217.35275490816971" height="500" as="geometry" />
        </mxCell>
        <mxCell id="e40BAH5m5hKkYkhLz0NS-408" value="" style="shape=cube;whiteSpace=wrap;html=1;boundedLbl=1;backgroundOutline=1;darkOpacity=0.05;darkOpacity2=0.1;direction=east;" vertex="1" parent="e40BAH5m5hKkYkhLz0NS-407">
          <mxGeometry x="96.03958937802848" y="420" width="121.31316553014123" height="80" as="geometry" />
        </mxCell>
        <mxCell id="e40BAH5m5hKkYkhLz0NS-409" value="" style="shape=cube;whiteSpace=wrap;html=1;boundedLbl=1;backgroundOutline=1;darkOpacity=0.05;darkOpacity2=0.1;direction=east;" vertex="1" parent="e40BAH5m5hKkYkhLz0NS-407">
          <mxGeometry x="96.03958937802848" y="360" width="121.31316553014123" height="80" as="geometry" />
        </mxCell>
        <mxCell id="e40BAH5m5hKkYkhLz0NS-410" value="" style="shape=cube;whiteSpace=wrap;html=1;boundedLbl=1;backgroundOutline=1;darkOpacity=0.05;darkOpacity2=0.1;direction=east;" vertex="1" parent="e40BAH5m5hKkYkhLz0NS-407">
          <mxGeometry x="96.03958937802848" y="300" width="121.31316553014123" height="80" as="geometry" />
        </mxCell>
        <mxCell id="e40BAH5m5hKkYkhLz0NS-411" value="" style="shape=cube;whiteSpace=wrap;html=1;boundedLbl=1;backgroundOutline=1;darkOpacity=0.05;darkOpacity2=0.1;direction=east;" vertex="1" parent="e40BAH5m5hKkYkhLz0NS-407">
          <mxGeometry x="96.03958937802848" y="240" width="121.31316553014123" height="80" as="geometry" />
        </mxCell>
        <mxCell id="e40BAH5m5hKkYkhLz0NS-412" value="" style="shape=cube;whiteSpace=wrap;html=1;boundedLbl=1;backgroundOutline=1;darkOpacity=0.05;darkOpacity2=0.1;direction=east;" vertex="1" parent="e40BAH5m5hKkYkhLz0NS-407">
          <mxGeometry x="96.03958937802848" y="180" width="121.31316553014123" height="80" as="geometry" />
        </mxCell>
        <mxCell id="e40BAH5m5hKkYkhLz0NS-413" value="" style="shape=cube;whiteSpace=wrap;html=1;boundedLbl=1;backgroundOutline=1;darkOpacity=0.05;darkOpacity2=0.1;direction=east;" vertex="1" parent="e40BAH5m5hKkYkhLz0NS-407">
          <mxGeometry x="96.03958937802848" y="120" width="121.31316553014123" height="80" as="geometry" />
        </mxCell>
        <mxCell id="e40BAH5m5hKkYkhLz0NS-414" value="" style="shape=cube;whiteSpace=wrap;html=1;boundedLbl=1;backgroundOutline=1;darkOpacity=0.05;darkOpacity2=0.1;direction=east;" vertex="1" parent="e40BAH5m5hKkYkhLz0NS-407">
          <mxGeometry x="96.03958937802848" y="60" width="121.31316553014123" height="80" as="geometry" />
        </mxCell>
        <mxCell id="e40BAH5m5hKkYkhLz0NS-415" value="Az(t1)" style="shape=cube;whiteSpace=wrap;html=1;boundedLbl=1;backgroundOutline=1;darkOpacity=0.05;darkOpacity2=0.1;direction=east;" vertex="1" parent="e40BAH5m5hKkYkhLz0NS-407">
          <mxGeometry x="96.03958937802848" width="121.31316553014123" height="80" as="geometry" />
        </mxCell>
        <mxCell id="e40BAH5m5hKkYkhLz0NS-416" value="" style="shape=cube;whiteSpace=wrap;html=1;boundedLbl=1;backgroundOutline=1;darkOpacity=0.05;darkOpacity2=0.1;" vertex="1" parent="e40BAH5m5hKkYkhLz0NS-407">
          <mxGeometry y="420" width="121.31316553014123" height="80" as="geometry" />
        </mxCell>
        <mxCell id="e40BAH5m5hKkYkhLz0NS-417" value="" style="shape=cube;whiteSpace=wrap;html=1;boundedLbl=1;backgroundOutline=1;darkOpacity=0.05;darkOpacity2=0.1;" vertex="1" parent="e40BAH5m5hKkYkhLz0NS-407">
          <mxGeometry y="360" width="121.31316553014123" height="80" as="geometry" />
        </mxCell>
        <mxCell id="e40BAH5m5hKkYkhLz0NS-418" value="" style="shape=cube;whiteSpace=wrap;html=1;boundedLbl=1;backgroundOutline=1;darkOpacity=0.05;darkOpacity2=0.1;" vertex="1" parent="e40BAH5m5hKkYkhLz0NS-407">
          <mxGeometry y="300" width="121.31316553014123" height="80" as="geometry" />
        </mxCell>
        <mxCell id="e40BAH5m5hKkYkhLz0NS-419" value="" style="shape=cube;whiteSpace=wrap;html=1;boundedLbl=1;backgroundOutline=1;darkOpacity=0.05;darkOpacity2=0.1;" vertex="1" parent="e40BAH5m5hKkYkhLz0NS-407">
          <mxGeometry y="240" width="121.31316553014123" height="80" as="geometry" />
        </mxCell>
        <mxCell id="e40BAH5m5hKkYkhLz0NS-420" value="" style="shape=cube;whiteSpace=wrap;html=1;boundedLbl=1;backgroundOutline=1;darkOpacity=0.05;darkOpacity2=0.1;" vertex="1" parent="e40BAH5m5hKkYkhLz0NS-407">
          <mxGeometry y="180" width="121.31316553014123" height="80" as="geometry" />
        </mxCell>
        <mxCell id="e40BAH5m5hKkYkhLz0NS-421" value="" style="shape=cube;whiteSpace=wrap;html=1;boundedLbl=1;backgroundOutline=1;darkOpacity=0.05;darkOpacity2=0.1;" vertex="1" parent="e40BAH5m5hKkYkhLz0NS-407">
          <mxGeometry y="120" width="121.31316553014123" height="80" as="geometry" />
        </mxCell>
        <mxCell id="e40BAH5m5hKkYkhLz0NS-422" value="" style="shape=cube;whiteSpace=wrap;html=1;boundedLbl=1;backgroundOutline=1;darkOpacity=0.05;darkOpacity2=0.1;" vertex="1" parent="e40BAH5m5hKkYkhLz0NS-407">
          <mxGeometry y="60" width="121.31316553014123" height="80" as="geometry" />
        </mxCell>
        <mxCell id="e40BAH5m5hKkYkhLz0NS-423" value="Ay(t1)" style="shape=cube;whiteSpace=wrap;html=1;boundedLbl=1;backgroundOutline=1;darkOpacity=0.05;darkOpacity2=0.1;" vertex="1" parent="e40BAH5m5hKkYkhLz0NS-407">
          <mxGeometry width="121.31316553014123" height="80" as="geometry" />
        </mxCell>
        <mxCell id="e40BAH5m5hKkYkhLz0NS-424" value="" style="group" vertex="1" connectable="0" parent="e40BAH5m5hKkYkhLz0NS-406">
          <mxGeometry width="212.41291956934768" height="500" as="geometry" />
        </mxCell>
        <mxCell id="e40BAH5m5hKkYkhLz0NS-425" value="" style="shape=cube;whiteSpace=wrap;html=1;boundedLbl=1;backgroundOutline=1;darkOpacity=0.05;darkOpacity2=0.1;direction=east;" vertex="1" parent="e40BAH5m5hKkYkhLz0NS-424">
          <mxGeometry x="93.85687143761874" y="420" width="118.55604813172893" height="80" as="geometry" />
        </mxCell>
        <mxCell id="e40BAH5m5hKkYkhLz0NS-426" value="" style="shape=cube;whiteSpace=wrap;html=1;boundedLbl=1;backgroundOutline=1;darkOpacity=0.05;darkOpacity2=0.1;direction=east;" vertex="1" parent="e40BAH5m5hKkYkhLz0NS-424">
          <mxGeometry x="93.85687143761874" y="360" width="118.55604813172893" height="80" as="geometry" />
        </mxCell>
        <mxCell id="e40BAH5m5hKkYkhLz0NS-427" value="" style="shape=cube;whiteSpace=wrap;html=1;boundedLbl=1;backgroundOutline=1;darkOpacity=0.05;darkOpacity2=0.1;direction=east;" vertex="1" parent="e40BAH5m5hKkYkhLz0NS-424">
          <mxGeometry x="93.85687143761874" y="300" width="118.55604813172893" height="80" as="geometry" />
        </mxCell>
        <mxCell id="e40BAH5m5hKkYkhLz0NS-428" value="" style="shape=cube;whiteSpace=wrap;html=1;boundedLbl=1;backgroundOutline=1;darkOpacity=0.05;darkOpacity2=0.1;direction=east;" vertex="1" parent="e40BAH5m5hKkYkhLz0NS-424">
          <mxGeometry x="93.85687143761874" y="240" width="118.55604813172893" height="80" as="geometry" />
        </mxCell>
        <mxCell id="e40BAH5m5hKkYkhLz0NS-429" value="" style="shape=cube;whiteSpace=wrap;html=1;boundedLbl=1;backgroundOutline=1;darkOpacity=0.05;darkOpacity2=0.1;direction=east;" vertex="1" parent="e40BAH5m5hKkYkhLz0NS-424">
          <mxGeometry x="93.85687143761874" y="180" width="118.55604813172893" height="80" as="geometry" />
        </mxCell>
        <mxCell id="e40BAH5m5hKkYkhLz0NS-430" value="" style="shape=cube;whiteSpace=wrap;html=1;boundedLbl=1;backgroundOutline=1;darkOpacity=0.05;darkOpacity2=0.1;direction=east;" vertex="1" parent="e40BAH5m5hKkYkhLz0NS-424">
          <mxGeometry x="93.85687143761874" y="120" width="118.55604813172893" height="80" as="geometry" />
        </mxCell>
        <mxCell id="e40BAH5m5hKkYkhLz0NS-431" value="" style="shape=cube;whiteSpace=wrap;html=1;boundedLbl=1;backgroundOutline=1;darkOpacity=0.05;darkOpacity2=0.1;direction=east;" vertex="1" parent="e40BAH5m5hKkYkhLz0NS-424">
          <mxGeometry x="93.85687143761874" y="60" width="118.55604813172893" height="80" as="geometry" />
        </mxCell>
        <mxCell id="e40BAH5m5hKkYkhLz0NS-432" value="Ax(t1)" style="shape=cube;whiteSpace=wrap;html=1;boundedLbl=1;backgroundOutline=1;darkOpacity=0.05;darkOpacity2=0.1;direction=east;" vertex="1" parent="e40BAH5m5hKkYkhLz0NS-424">
          <mxGeometry x="93.85687143761874" width="118.55604813172893" height="80" as="geometry" />
        </mxCell>
        <mxCell id="e40BAH5m5hKkYkhLz0NS-433" value="" style="shape=cube;whiteSpace=wrap;html=1;boundedLbl=1;backgroundOutline=1;darkOpacity=0.05;darkOpacity2=0.1;" vertex="1" parent="e40BAH5m5hKkYkhLz0NS-424">
          <mxGeometry y="420" width="118.55604813172893" height="80" as="geometry" />
        </mxCell>
        <mxCell id="e40BAH5m5hKkYkhLz0NS-434" value="" style="shape=cube;whiteSpace=wrap;html=1;boundedLbl=1;backgroundOutline=1;darkOpacity=0.05;darkOpacity2=0.1;" vertex="1" parent="e40BAH5m5hKkYkhLz0NS-424">
          <mxGeometry y="360" width="118.55604813172893" height="80" as="geometry" />
        </mxCell>
        <mxCell id="e40BAH5m5hKkYkhLz0NS-435" value="" style="shape=cube;whiteSpace=wrap;html=1;boundedLbl=1;backgroundOutline=1;darkOpacity=0.05;darkOpacity2=0.1;" vertex="1" parent="e40BAH5m5hKkYkhLz0NS-424">
          <mxGeometry y="300" width="118.55604813172893" height="80" as="geometry" />
        </mxCell>
        <mxCell id="e40BAH5m5hKkYkhLz0NS-436" value="" style="shape=cube;whiteSpace=wrap;html=1;boundedLbl=1;backgroundOutline=1;darkOpacity=0.05;darkOpacity2=0.1;" vertex="1" parent="e40BAH5m5hKkYkhLz0NS-424">
          <mxGeometry y="240" width="118.55604813172893" height="80" as="geometry" />
        </mxCell>
        <mxCell id="e40BAH5m5hKkYkhLz0NS-437" value="" style="shape=cube;whiteSpace=wrap;html=1;boundedLbl=1;backgroundOutline=1;darkOpacity=0.05;darkOpacity2=0.1;" vertex="1" parent="e40BAH5m5hKkYkhLz0NS-424">
          <mxGeometry y="180" width="118.55604813172893" height="80" as="geometry" />
        </mxCell>
        <mxCell id="e40BAH5m5hKkYkhLz0NS-438" value="" style="shape=cube;whiteSpace=wrap;html=1;boundedLbl=1;backgroundOutline=1;darkOpacity=0.05;darkOpacity2=0.1;" vertex="1" parent="e40BAH5m5hKkYkhLz0NS-424">
          <mxGeometry y="120" width="118.55604813172893" height="80" as="geometry" />
        </mxCell>
        <mxCell id="e40BAH5m5hKkYkhLz0NS-439" value="" style="shape=cube;whiteSpace=wrap;html=1;boundedLbl=1;backgroundOutline=1;darkOpacity=0.05;darkOpacity2=0.1;" vertex="1" parent="e40BAH5m5hKkYkhLz0NS-424">
          <mxGeometry y="60" width="118.55604813172893" height="80" as="geometry" />
        </mxCell>
        <mxCell id="e40BAH5m5hKkYkhLz0NS-440" value="t1" style="shape=cube;whiteSpace=wrap;html=1;boundedLbl=1;backgroundOutline=1;darkOpacity=0.05;darkOpacity2=0.1;" vertex="1" parent="e40BAH5m5hKkYkhLz0NS-424">
          <mxGeometry width="118.55604813172893" height="80" as="geometry" />
        </mxCell>
        <mxCell id="e40BAH5m5hKkYkhLz0NS-143" value="" style="group;fontSize=40;fontStyle=1;" vertex="1" connectable="0" parent="e40BAH5m5hKkYkhLz0NS-443">
          <mxGeometry width="1579" height="730" as="geometry" />
        </mxCell>
        <mxCell id="e40BAH5m5hKkYkhLz0NS-72" value="" style="group" vertex="1" connectable="0" parent="e40BAH5m5hKkYkhLz0NS-143">
          <mxGeometry x="779" width="800" height="690" as="geometry" />
        </mxCell>
        <mxCell id="e40BAH5m5hKkYkhLz0NS-73" value="" style="group" vertex="1" connectable="0" parent="e40BAH5m5hKkYkhLz0NS-72">
          <mxGeometry x="390" width="410" height="500" as="geometry" />
        </mxCell>
        <mxCell id="e40BAH5m5hKkYkhLz0NS-74" value="" style="group" vertex="1" connectable="0" parent="e40BAH5m5hKkYkhLz0NS-73">
          <mxGeometry x="190" width="220" height="500" as="geometry" />
        </mxCell>
        <mxCell id="e40BAH5m5hKkYkhLz0NS-75" value="F3(tn)" style="shape=cube;whiteSpace=wrap;html=1;boundedLbl=1;backgroundOutline=1;darkOpacity=0.05;darkOpacity2=0.1;direction=east;" vertex="1" parent="e40BAH5m5hKkYkhLz0NS-74">
          <mxGeometry x="97.2093023255814" y="420" width="122.79069767441861" height="80" as="geometry" />
        </mxCell>
        <mxCell id="e40BAH5m5hKkYkhLz0NS-76" value="" style="shape=cube;whiteSpace=wrap;html=1;boundedLbl=1;backgroundOutline=1;darkOpacity=0.05;darkOpacity2=0.1;direction=east;" vertex="1" parent="e40BAH5m5hKkYkhLz0NS-74">
          <mxGeometry x="97.2093023255814" y="360" width="122.79069767441861" height="80" as="geometry" />
        </mxCell>
        <mxCell id="e40BAH5m5hKkYkhLz0NS-77" value="" style="shape=cube;whiteSpace=wrap;html=1;boundedLbl=1;backgroundOutline=1;darkOpacity=0.05;darkOpacity2=0.1;direction=east;" vertex="1" parent="e40BAH5m5hKkYkhLz0NS-74">
          <mxGeometry x="97.2093023255814" y="300" width="122.79069767441861" height="80" as="geometry" />
        </mxCell>
        <mxCell id="e40BAH5m5hKkYkhLz0NS-78" value="" style="shape=cube;whiteSpace=wrap;html=1;boundedLbl=1;backgroundOutline=1;darkOpacity=0.05;darkOpacity2=0.1;direction=east;" vertex="1" parent="e40BAH5m5hKkYkhLz0NS-74">
          <mxGeometry x="97.2093023255814" y="240" width="122.79069767441861" height="80" as="geometry" />
        </mxCell>
        <mxCell id="e40BAH5m5hKkYkhLz0NS-79" value="" style="shape=cube;whiteSpace=wrap;html=1;boundedLbl=1;backgroundOutline=1;darkOpacity=0.05;darkOpacity2=0.1;direction=east;" vertex="1" parent="e40BAH5m5hKkYkhLz0NS-74">
          <mxGeometry x="97.2093023255814" y="180" width="122.79069767441861" height="80" as="geometry" />
        </mxCell>
        <mxCell id="e40BAH5m5hKkYkhLz0NS-80" value="" style="shape=cube;whiteSpace=wrap;html=1;boundedLbl=1;backgroundOutline=1;darkOpacity=0.05;darkOpacity2=0.1;direction=east;" vertex="1" parent="e40BAH5m5hKkYkhLz0NS-74">
          <mxGeometry x="97.2093023255814" y="120" width="122.79069767441861" height="80" as="geometry" />
        </mxCell>
        <mxCell id="e40BAH5m5hKkYkhLz0NS-81" value="F3(t2)" style="shape=cube;whiteSpace=wrap;html=1;boundedLbl=1;backgroundOutline=1;darkOpacity=0.05;darkOpacity2=0.1;direction=east;" vertex="1" parent="e40BAH5m5hKkYkhLz0NS-74">
          <mxGeometry x="97.2093023255814" y="60" width="122.79069767441861" height="80" as="geometry" />
        </mxCell>
        <mxCell id="e40BAH5m5hKkYkhLz0NS-82" value="F3(t1)" style="shape=cube;whiteSpace=wrap;html=1;boundedLbl=1;backgroundOutline=1;darkOpacity=0.05;darkOpacity2=0.1;direction=east;fillColor=#d80073;fontColor=#ffffff;strokeColor=#A50040;" vertex="1" parent="e40BAH5m5hKkYkhLz0NS-74">
          <mxGeometry x="97.2093023255814" width="122.79069767441861" height="80" as="geometry" />
        </mxCell>
        <mxCell id="e40BAH5m5hKkYkhLz0NS-83" value="F2(tn)" style="shape=cube;whiteSpace=wrap;html=1;boundedLbl=1;backgroundOutline=1;darkOpacity=0.05;darkOpacity2=0.1;" vertex="1" parent="e40BAH5m5hKkYkhLz0NS-74">
          <mxGeometry y="420" width="122.79069767441861" height="80" as="geometry" />
        </mxCell>
        <mxCell id="e40BAH5m5hKkYkhLz0NS-84" value="" style="shape=cube;whiteSpace=wrap;html=1;boundedLbl=1;backgroundOutline=1;darkOpacity=0.05;darkOpacity2=0.1;" vertex="1" parent="e40BAH5m5hKkYkhLz0NS-74">
          <mxGeometry y="360" width="122.79069767441861" height="80" as="geometry" />
        </mxCell>
        <mxCell id="e40BAH5m5hKkYkhLz0NS-85" value="" style="shape=cube;whiteSpace=wrap;html=1;boundedLbl=1;backgroundOutline=1;darkOpacity=0.05;darkOpacity2=0.1;" vertex="1" parent="e40BAH5m5hKkYkhLz0NS-74">
          <mxGeometry y="300" width="122.79069767441861" height="80" as="geometry" />
        </mxCell>
        <mxCell id="e40BAH5m5hKkYkhLz0NS-86" value="" style="shape=cube;whiteSpace=wrap;html=1;boundedLbl=1;backgroundOutline=1;darkOpacity=0.05;darkOpacity2=0.1;" vertex="1" parent="e40BAH5m5hKkYkhLz0NS-74">
          <mxGeometry y="240" width="122.79069767441861" height="80" as="geometry" />
        </mxCell>
        <mxCell id="e40BAH5m5hKkYkhLz0NS-87" value="" style="shape=cube;whiteSpace=wrap;html=1;boundedLbl=1;backgroundOutline=1;darkOpacity=0.05;darkOpacity2=0.1;" vertex="1" parent="e40BAH5m5hKkYkhLz0NS-74">
          <mxGeometry y="180" width="122.79069767441861" height="80" as="geometry" />
        </mxCell>
        <mxCell id="e40BAH5m5hKkYkhLz0NS-88" value="" style="shape=cube;whiteSpace=wrap;html=1;boundedLbl=1;backgroundOutline=1;darkOpacity=0.05;darkOpacity2=0.1;" vertex="1" parent="e40BAH5m5hKkYkhLz0NS-74">
          <mxGeometry y="120" width="122.79069767441861" height="80" as="geometry" />
        </mxCell>
        <mxCell id="e40BAH5m5hKkYkhLz0NS-89" value="F2(t2)" style="shape=cube;whiteSpace=wrap;html=1;boundedLbl=1;backgroundOutline=1;darkOpacity=0.05;darkOpacity2=0.1;" vertex="1" parent="e40BAH5m5hKkYkhLz0NS-74">
          <mxGeometry x="2.79" y="60" width="120" height="80" as="geometry" />
        </mxCell>
        <mxCell id="e40BAH5m5hKkYkhLz0NS-90" value="F2(t1)" style="shape=cube;whiteSpace=wrap;html=1;boundedLbl=1;backgroundOutline=1;darkOpacity=0.05;darkOpacity2=0.1;fillColor=#d80073;fontColor=#ffffff;strokeColor=#A50040;" vertex="1" parent="e40BAH5m5hKkYkhLz0NS-74">
          <mxGeometry width="122.79069767441861" height="80" as="geometry" />
        </mxCell>
        <mxCell id="e40BAH5m5hKkYkhLz0NS-91" value="" style="group" vertex="1" connectable="0" parent="e40BAH5m5hKkYkhLz0NS-73">
          <mxGeometry width="215" height="500" as="geometry" />
        </mxCell>
        <mxCell id="e40BAH5m5hKkYkhLz0NS-92" value="F1(tn)" style="shape=cube;whiteSpace=wrap;html=1;boundedLbl=1;backgroundOutline=1;darkOpacity=0.05;darkOpacity2=0.1;direction=east;" vertex="1" parent="e40BAH5m5hKkYkhLz0NS-91">
          <mxGeometry x="95" y="420" width="120" height="80" as="geometry" />
        </mxCell>
        <mxCell id="e40BAH5m5hKkYkhLz0NS-93" value="" style="shape=cube;whiteSpace=wrap;html=1;boundedLbl=1;backgroundOutline=1;darkOpacity=0.05;darkOpacity2=0.1;direction=east;" vertex="1" parent="e40BAH5m5hKkYkhLz0NS-91">
          <mxGeometry x="95" y="360" width="120" height="80" as="geometry" />
        </mxCell>
        <mxCell id="e40BAH5m5hKkYkhLz0NS-94" value="" style="shape=cube;whiteSpace=wrap;html=1;boundedLbl=1;backgroundOutline=1;darkOpacity=0.05;darkOpacity2=0.1;direction=east;" vertex="1" parent="e40BAH5m5hKkYkhLz0NS-91">
          <mxGeometry x="95" y="300" width="120" height="80" as="geometry" />
        </mxCell>
        <mxCell id="e40BAH5m5hKkYkhLz0NS-95" value="" style="shape=cube;whiteSpace=wrap;html=1;boundedLbl=1;backgroundOutline=1;darkOpacity=0.05;darkOpacity2=0.1;direction=east;" vertex="1" parent="e40BAH5m5hKkYkhLz0NS-91">
          <mxGeometry x="95" y="240" width="120" height="80" as="geometry" />
        </mxCell>
        <mxCell id="e40BAH5m5hKkYkhLz0NS-96" value="" style="shape=cube;whiteSpace=wrap;html=1;boundedLbl=1;backgroundOutline=1;darkOpacity=0.05;darkOpacity2=0.1;direction=east;" vertex="1" parent="e40BAH5m5hKkYkhLz0NS-91">
          <mxGeometry x="95" y="180" width="120" height="80" as="geometry" />
        </mxCell>
        <mxCell id="e40BAH5m5hKkYkhLz0NS-97" value="" style="shape=cube;whiteSpace=wrap;html=1;boundedLbl=1;backgroundOutline=1;darkOpacity=0.05;darkOpacity2=0.1;direction=east;" vertex="1" parent="e40BAH5m5hKkYkhLz0NS-91">
          <mxGeometry x="95" y="120" width="120" height="80" as="geometry" />
        </mxCell>
        <mxCell id="e40BAH5m5hKkYkhLz0NS-98" value="F1(t2)" style="shape=cube;whiteSpace=wrap;html=1;boundedLbl=1;backgroundOutline=1;darkOpacity=0.05;darkOpacity2=0.1;direction=east;" vertex="1" parent="e40BAH5m5hKkYkhLz0NS-91">
          <mxGeometry x="95" y="60" width="120" height="80" as="geometry" />
        </mxCell>
        <mxCell id="e40BAH5m5hKkYkhLz0NS-99" value="F1(t1)" style="shape=cube;whiteSpace=wrap;html=1;boundedLbl=1;backgroundOutline=1;darkOpacity=0.05;darkOpacity2=0.1;direction=east;fillColor=#d80073;fontColor=#ffffff;strokeColor=#A50040;" vertex="1" parent="e40BAH5m5hKkYkhLz0NS-91">
          <mxGeometry x="95" width="120" height="80" as="geometry" />
        </mxCell>
        <mxCell id="e40BAH5m5hKkYkhLz0NS-100" value="R(tn)" style="shape=cube;whiteSpace=wrap;html=1;boundedLbl=1;backgroundOutline=1;darkOpacity=0.05;darkOpacity2=0.1;" vertex="1" parent="e40BAH5m5hKkYkhLz0NS-91">
          <mxGeometry y="420" width="120" height="80" as="geometry" />
        </mxCell>
        <mxCell id="e40BAH5m5hKkYkhLz0NS-101" value="" style="shape=cube;whiteSpace=wrap;html=1;boundedLbl=1;backgroundOutline=1;darkOpacity=0.05;darkOpacity2=0.1;" vertex="1" parent="e40BAH5m5hKkYkhLz0NS-91">
          <mxGeometry y="360" width="120" height="80" as="geometry" />
        </mxCell>
        <mxCell id="e40BAH5m5hKkYkhLz0NS-102" value="" style="shape=cube;whiteSpace=wrap;html=1;boundedLbl=1;backgroundOutline=1;darkOpacity=0.05;darkOpacity2=0.1;" vertex="1" parent="e40BAH5m5hKkYkhLz0NS-91">
          <mxGeometry y="300" width="120" height="80" as="geometry" />
        </mxCell>
        <mxCell id="e40BAH5m5hKkYkhLz0NS-103" value="" style="shape=cube;whiteSpace=wrap;html=1;boundedLbl=1;backgroundOutline=1;darkOpacity=0.05;darkOpacity2=0.1;" vertex="1" parent="e40BAH5m5hKkYkhLz0NS-91">
          <mxGeometry y="240" width="120" height="80" as="geometry" />
        </mxCell>
        <mxCell id="e40BAH5m5hKkYkhLz0NS-104" value="" style="shape=cube;whiteSpace=wrap;html=1;boundedLbl=1;backgroundOutline=1;darkOpacity=0.05;darkOpacity2=0.1;" vertex="1" parent="e40BAH5m5hKkYkhLz0NS-91">
          <mxGeometry y="180" width="120" height="80" as="geometry" />
        </mxCell>
        <mxCell id="e40BAH5m5hKkYkhLz0NS-105" value="" style="shape=cube;whiteSpace=wrap;html=1;boundedLbl=1;backgroundOutline=1;darkOpacity=0.05;darkOpacity2=0.1;" vertex="1" parent="e40BAH5m5hKkYkhLz0NS-91">
          <mxGeometry y="120" width="120" height="80" as="geometry" />
        </mxCell>
        <mxCell id="e40BAH5m5hKkYkhLz0NS-106" value="R(t2)" style="shape=cube;whiteSpace=wrap;html=1;boundedLbl=1;backgroundOutline=1;darkOpacity=0.05;darkOpacity2=0.1;" vertex="1" parent="e40BAH5m5hKkYkhLz0NS-91">
          <mxGeometry y="60" width="120" height="80" as="geometry" />
        </mxCell>
        <mxCell id="e40BAH5m5hKkYkhLz0NS-107" value="R(t1)" style="shape=cube;whiteSpace=wrap;html=1;boundedLbl=1;backgroundOutline=1;darkOpacity=0.05;darkOpacity2=0.1;fillColor=#e1d5e7;strokeColor=#9673a6;" vertex="1" parent="e40BAH5m5hKkYkhLz0NS-91">
          <mxGeometry width="120" height="80" as="geometry" />
        </mxCell>
        <mxCell id="e40BAH5m5hKkYkhLz0NS-108" value="" style="group;fontSize=40;" vertex="1" connectable="0" parent="e40BAH5m5hKkYkhLz0NS-72">
          <mxGeometry width="410" height="690" as="geometry" />
        </mxCell>
        <mxCell id="e40BAH5m5hKkYkhLz0NS-109" value="" style="group" vertex="1" connectable="0" parent="e40BAH5m5hKkYkhLz0NS-108">
          <mxGeometry x="190" width="220" height="500" as="geometry" />
        </mxCell>
        <mxCell id="e40BAH5m5hKkYkhLz0NS-110" value="Q(tn)" style="shape=cube;whiteSpace=wrap;html=1;boundedLbl=1;backgroundOutline=1;darkOpacity=0.05;darkOpacity2=0.1;direction=east;" vertex="1" parent="e40BAH5m5hKkYkhLz0NS-109">
          <mxGeometry x="97.2093023255814" y="420" width="122.79069767441861" height="80" as="geometry" />
        </mxCell>
        <mxCell id="e40BAH5m5hKkYkhLz0NS-111" value="" style="shape=cube;whiteSpace=wrap;html=1;boundedLbl=1;backgroundOutline=1;darkOpacity=0.05;darkOpacity2=0.1;direction=east;" vertex="1" parent="e40BAH5m5hKkYkhLz0NS-109">
          <mxGeometry x="97.2093023255814" y="360" width="122.79069767441861" height="80" as="geometry" />
        </mxCell>
        <mxCell id="e40BAH5m5hKkYkhLz0NS-112" value="" style="shape=cube;whiteSpace=wrap;html=1;boundedLbl=1;backgroundOutline=1;darkOpacity=0.05;darkOpacity2=0.1;direction=east;" vertex="1" parent="e40BAH5m5hKkYkhLz0NS-109">
          <mxGeometry x="97.2093023255814" y="300" width="122.79069767441861" height="80" as="geometry" />
        </mxCell>
        <mxCell id="e40BAH5m5hKkYkhLz0NS-113" value="" style="shape=cube;whiteSpace=wrap;html=1;boundedLbl=1;backgroundOutline=1;darkOpacity=0.05;darkOpacity2=0.1;direction=east;" vertex="1" parent="e40BAH5m5hKkYkhLz0NS-109">
          <mxGeometry x="97.2093023255814" y="240" width="122.79069767441861" height="80" as="geometry" />
        </mxCell>
        <mxCell id="e40BAH5m5hKkYkhLz0NS-114" value="" style="shape=cube;whiteSpace=wrap;html=1;boundedLbl=1;backgroundOutline=1;darkOpacity=0.05;darkOpacity2=0.1;direction=east;" vertex="1" parent="e40BAH5m5hKkYkhLz0NS-109">
          <mxGeometry x="97.2093023255814" y="180" width="122.79069767441861" height="80" as="geometry" />
        </mxCell>
        <mxCell id="e40BAH5m5hKkYkhLz0NS-115" value="" style="shape=cube;whiteSpace=wrap;html=1;boundedLbl=1;backgroundOutline=1;darkOpacity=0.05;darkOpacity2=0.1;direction=east;" vertex="1" parent="e40BAH5m5hKkYkhLz0NS-109">
          <mxGeometry x="97.2093023255814" y="120" width="122.79069767441861" height="80" as="geometry" />
        </mxCell>
        <mxCell id="e40BAH5m5hKkYkhLz0NS-116" value="Q(t2)" style="shape=cube;whiteSpace=wrap;html=1;boundedLbl=1;backgroundOutline=1;darkOpacity=0.05;darkOpacity2=0.1;direction=east;" vertex="1" parent="e40BAH5m5hKkYkhLz0NS-109">
          <mxGeometry x="97.2093023255814" y="60" width="122.79069767441861" height="80" as="geometry" />
        </mxCell>
        <mxCell id="e40BAH5m5hKkYkhLz0NS-117" value="Q(t1)" style="shape=cube;whiteSpace=wrap;html=1;boundedLbl=1;backgroundOutline=1;darkOpacity=0.05;darkOpacity2=0.1;direction=east;fillColor=#e1d5e7;strokeColor=#9673a6;" vertex="1" parent="e40BAH5m5hKkYkhLz0NS-109">
          <mxGeometry x="97.2093023255814" width="122.79069767441861" height="80" as="geometry" />
        </mxCell>
        <mxCell id="e40BAH5m5hKkYkhLz0NS-118" value="P(tn)" style="shape=cube;whiteSpace=wrap;html=1;boundedLbl=1;backgroundOutline=1;darkOpacity=0.05;darkOpacity2=0.1;" vertex="1" parent="e40BAH5m5hKkYkhLz0NS-109">
          <mxGeometry y="420" width="122.79069767441861" height="80" as="geometry" />
        </mxCell>
        <mxCell id="e40BAH5m5hKkYkhLz0NS-119" value="" style="shape=cube;whiteSpace=wrap;html=1;boundedLbl=1;backgroundOutline=1;darkOpacity=0.05;darkOpacity2=0.1;" vertex="1" parent="e40BAH5m5hKkYkhLz0NS-109">
          <mxGeometry y="360" width="122.79069767441861" height="80" as="geometry" />
        </mxCell>
        <mxCell id="e40BAH5m5hKkYkhLz0NS-120" value="" style="shape=cube;whiteSpace=wrap;html=1;boundedLbl=1;backgroundOutline=1;darkOpacity=0.05;darkOpacity2=0.1;" vertex="1" parent="e40BAH5m5hKkYkhLz0NS-109">
          <mxGeometry y="300" width="122.79069767441861" height="80" as="geometry" />
        </mxCell>
        <mxCell id="e40BAH5m5hKkYkhLz0NS-121" value="" style="shape=cube;whiteSpace=wrap;html=1;boundedLbl=1;backgroundOutline=1;darkOpacity=0.05;darkOpacity2=0.1;" vertex="1" parent="e40BAH5m5hKkYkhLz0NS-109">
          <mxGeometry y="240" width="122.79069767441861" height="80" as="geometry" />
        </mxCell>
        <mxCell id="e40BAH5m5hKkYkhLz0NS-122" value="" style="shape=cube;whiteSpace=wrap;html=1;boundedLbl=1;backgroundOutline=1;darkOpacity=0.05;darkOpacity2=0.1;" vertex="1" parent="e40BAH5m5hKkYkhLz0NS-109">
          <mxGeometry y="180" width="122.79069767441861" height="80" as="geometry" />
        </mxCell>
        <mxCell id="e40BAH5m5hKkYkhLz0NS-123" value="" style="shape=cube;whiteSpace=wrap;html=1;boundedLbl=1;backgroundOutline=1;darkOpacity=0.05;darkOpacity2=0.1;" vertex="1" parent="e40BAH5m5hKkYkhLz0NS-109">
          <mxGeometry y="120" width="122.79069767441861" height="80" as="geometry" />
        </mxCell>
        <mxCell id="e40BAH5m5hKkYkhLz0NS-124" value="P(t2)" style="shape=cube;whiteSpace=wrap;html=1;boundedLbl=1;backgroundOutline=1;darkOpacity=0.05;darkOpacity2=0.1;" vertex="1" parent="e40BAH5m5hKkYkhLz0NS-109">
          <mxGeometry y="60" width="122.79069767441861" height="80" as="geometry" />
        </mxCell>
        <mxCell id="e40BAH5m5hKkYkhLz0NS-125" value="P(t1)" style="shape=cube;whiteSpace=wrap;html=1;boundedLbl=1;backgroundOutline=1;darkOpacity=0.05;darkOpacity2=0.1;fillColor=#e1d5e7;strokeColor=#9673a6;" vertex="1" parent="e40BAH5m5hKkYkhLz0NS-109">
          <mxGeometry width="122.79069767441861" height="80" as="geometry" />
        </mxCell>
        <mxCell id="e40BAH5m5hKkYkhLz0NS-126" value="" style="group" vertex="1" connectable="0" parent="e40BAH5m5hKkYkhLz0NS-108">
          <mxGeometry width="215" height="690" as="geometry" />
        </mxCell>
        <mxCell id="e40BAH5m5hKkYkhLz0NS-127" value="Yaw(tn)" style="shape=cube;whiteSpace=wrap;html=1;boundedLbl=1;backgroundOutline=1;darkOpacity=0.05;darkOpacity2=0.1;direction=east;" vertex="1" parent="e40BAH5m5hKkYkhLz0NS-126">
          <mxGeometry x="95" y="420" width="120" height="80" as="geometry" />
        </mxCell>
        <mxCell id="e40BAH5m5hKkYkhLz0NS-128" value="" style="shape=cube;whiteSpace=wrap;html=1;boundedLbl=1;backgroundOutline=1;darkOpacity=0.05;darkOpacity2=0.1;direction=east;" vertex="1" parent="e40BAH5m5hKkYkhLz0NS-126">
          <mxGeometry x="95" y="360" width="120" height="80" as="geometry" />
        </mxCell>
        <mxCell id="e40BAH5m5hKkYkhLz0NS-129" value="" style="shape=cube;whiteSpace=wrap;html=1;boundedLbl=1;backgroundOutline=1;darkOpacity=0.05;darkOpacity2=0.1;direction=east;" vertex="1" parent="e40BAH5m5hKkYkhLz0NS-126">
          <mxGeometry x="95" y="300" width="120" height="80" as="geometry" />
        </mxCell>
        <mxCell id="e40BAH5m5hKkYkhLz0NS-130" value="" style="shape=cube;whiteSpace=wrap;html=1;boundedLbl=1;backgroundOutline=1;darkOpacity=0.05;darkOpacity2=0.1;direction=east;" vertex="1" parent="e40BAH5m5hKkYkhLz0NS-126">
          <mxGeometry x="95" y="240" width="120" height="80" as="geometry" />
        </mxCell>
        <mxCell id="e40BAH5m5hKkYkhLz0NS-131" value="" style="shape=cube;whiteSpace=wrap;html=1;boundedLbl=1;backgroundOutline=1;darkOpacity=0.05;darkOpacity2=0.1;direction=east;" vertex="1" parent="e40BAH5m5hKkYkhLz0NS-126">
          <mxGeometry x="95" y="180" width="120" height="80" as="geometry" />
        </mxCell>
        <mxCell id="e40BAH5m5hKkYkhLz0NS-132" value="" style="shape=cube;whiteSpace=wrap;html=1;boundedLbl=1;backgroundOutline=1;darkOpacity=0.05;darkOpacity2=0.1;direction=east;" vertex="1" parent="e40BAH5m5hKkYkhLz0NS-126">
          <mxGeometry x="95" y="120" width="120" height="80" as="geometry" />
        </mxCell>
        <mxCell id="e40BAH5m5hKkYkhLz0NS-133" value="Yaw(t2)" style="shape=cube;whiteSpace=wrap;html=1;boundedLbl=1;backgroundOutline=1;darkOpacity=0.05;darkOpacity2=0.1;direction=east;" vertex="1" parent="e40BAH5m5hKkYkhLz0NS-126">
          <mxGeometry x="95" y="60" width="120" height="80" as="geometry" />
        </mxCell>
        <mxCell id="e40BAH5m5hKkYkhLz0NS-134" value="Yaw(t1)" style="shape=cube;whiteSpace=wrap;html=1;boundedLbl=1;backgroundOutline=1;darkOpacity=0.05;darkOpacity2=0.1;direction=east;fillColor=#fff2cc;strokeColor=#d6b656;" vertex="1" parent="e40BAH5m5hKkYkhLz0NS-126">
          <mxGeometry x="95" width="120" height="80" as="geometry" />
        </mxCell>
        <mxCell id="e40BAH5m5hKkYkhLz0NS-135" value="Pitch(tn)" style="shape=cube;whiteSpace=wrap;html=1;boundedLbl=1;backgroundOutline=1;darkOpacity=0.05;darkOpacity2=0.1;" vertex="1" parent="e40BAH5m5hKkYkhLz0NS-126">
          <mxGeometry y="420" width="120" height="80" as="geometry" />
        </mxCell>
        <mxCell id="e40BAH5m5hKkYkhLz0NS-136" value="" style="shape=cube;whiteSpace=wrap;html=1;boundedLbl=1;backgroundOutline=1;darkOpacity=0.05;darkOpacity2=0.1;" vertex="1" parent="e40BAH5m5hKkYkhLz0NS-126">
          <mxGeometry y="360" width="120" height="80" as="geometry" />
        </mxCell>
        <mxCell id="e40BAH5m5hKkYkhLz0NS-137" value="" style="shape=cube;whiteSpace=wrap;html=1;boundedLbl=1;backgroundOutline=1;darkOpacity=0.05;darkOpacity2=0.1;" vertex="1" parent="e40BAH5m5hKkYkhLz0NS-126">
          <mxGeometry y="300" width="120" height="80" as="geometry" />
        </mxCell>
        <mxCell id="e40BAH5m5hKkYkhLz0NS-138" value="" style="shape=cube;whiteSpace=wrap;html=1;boundedLbl=1;backgroundOutline=1;darkOpacity=0.05;darkOpacity2=0.1;" vertex="1" parent="e40BAH5m5hKkYkhLz0NS-126">
          <mxGeometry y="240" width="120" height="80" as="geometry" />
        </mxCell>
        <mxCell id="e40BAH5m5hKkYkhLz0NS-139" value="" style="shape=cube;whiteSpace=wrap;html=1;boundedLbl=1;backgroundOutline=1;darkOpacity=0.05;darkOpacity2=0.1;" vertex="1" parent="e40BAH5m5hKkYkhLz0NS-126">
          <mxGeometry y="180" width="120" height="80" as="geometry" />
        </mxCell>
        <mxCell id="e40BAH5m5hKkYkhLz0NS-140" value="." style="shape=cube;whiteSpace=wrap;html=1;boundedLbl=1;backgroundOutline=1;darkOpacity=0.05;darkOpacity2=0.1;fontStyle=1" vertex="1" parent="e40BAH5m5hKkYkhLz0NS-126">
          <mxGeometry y="120" width="120" height="80" as="geometry" />
        </mxCell>
        <mxCell id="e40BAH5m5hKkYkhLz0NS-141" value="Pitch(t2)" style="shape=cube;whiteSpace=wrap;html=1;boundedLbl=1;backgroundOutline=1;darkOpacity=0.05;darkOpacity2=0.1;" vertex="1" parent="e40BAH5m5hKkYkhLz0NS-126">
          <mxGeometry y="60" width="120" height="80" as="geometry" />
        </mxCell>
        <mxCell id="e40BAH5m5hKkYkhLz0NS-142" value="Pitch(t1)" style="shape=cube;whiteSpace=wrap;html=1;boundedLbl=1;backgroundOutline=1;darkOpacity=0.05;darkOpacity2=0.1;fillColor=#fff2cc;strokeColor=#d6b656;" vertex="1" parent="e40BAH5m5hKkYkhLz0NS-126">
          <mxGeometry width="120" height="80" as="geometry" />
        </mxCell>
        <mxCell id="e40BAH5m5hKkYkhLz0NS-71" value="A" style="group" vertex="1" connectable="0" parent="e40BAH5m5hKkYkhLz0NS-143">
          <mxGeometry width="800" height="730" as="geometry" />
        </mxCell>
        <mxCell id="PtV35FxHj_mzIhpnfhA_-85" value="" style="group" parent="e40BAH5m5hKkYkhLz0NS-71" vertex="1" connectable="0">
          <mxGeometry x="390" width="410" height="730" as="geometry" />
        </mxCell>
        <mxCell id="PtV35FxHj_mzIhpnfhA_-86" value="" style="group" parent="PtV35FxHj_mzIhpnfhA_-85" vertex="1" connectable="0">
          <mxGeometry x="190" width="220" height="730" as="geometry" />
        </mxCell>
        <mxCell id="PtV35FxHj_mzIhpnfhA_-87" value="Roll(tn)" style="shape=cube;whiteSpace=wrap;html=1;boundedLbl=1;backgroundOutline=1;darkOpacity=0.05;darkOpacity2=0.1;direction=east;" parent="PtV35FxHj_mzIhpnfhA_-86" vertex="1">
          <mxGeometry x="97.2093023255814" y="420" width="122.79069767441861" height="80" as="geometry" />
        </mxCell>
        <mxCell id="PtV35FxHj_mzIhpnfhA_-88" value="" style="shape=cube;whiteSpace=wrap;html=1;boundedLbl=1;backgroundOutline=1;darkOpacity=0.05;darkOpacity2=0.1;direction=east;" parent="PtV35FxHj_mzIhpnfhA_-86" vertex="1">
          <mxGeometry x="97.2093023255814" y="360" width="122.79069767441861" height="80" as="geometry" />
        </mxCell>
        <mxCell id="PtV35FxHj_mzIhpnfhA_-89" value="" style="shape=cube;whiteSpace=wrap;html=1;boundedLbl=1;backgroundOutline=1;darkOpacity=0.05;darkOpacity2=0.1;direction=east;" parent="PtV35FxHj_mzIhpnfhA_-86" vertex="1">
          <mxGeometry x="97.2093023255814" y="300" width="122.79069767441861" height="80" as="geometry" />
        </mxCell>
        <mxCell id="PtV35FxHj_mzIhpnfhA_-90" value="" style="shape=cube;whiteSpace=wrap;html=1;boundedLbl=1;backgroundOutline=1;darkOpacity=0.05;darkOpacity2=0.1;direction=east;" parent="PtV35FxHj_mzIhpnfhA_-86" vertex="1">
          <mxGeometry x="97.2093023255814" y="240" width="122.79069767441861" height="80" as="geometry" />
        </mxCell>
        <mxCell id="PtV35FxHj_mzIhpnfhA_-91" value="" style="shape=cube;whiteSpace=wrap;html=1;boundedLbl=1;backgroundOutline=1;darkOpacity=0.05;darkOpacity2=0.1;direction=east;" parent="PtV35FxHj_mzIhpnfhA_-86" vertex="1">
          <mxGeometry x="97.2093023255814" y="180" width="122.79069767441861" height="80" as="geometry" />
        </mxCell>
        <mxCell id="PtV35FxHj_mzIhpnfhA_-92" value="" style="shape=cube;whiteSpace=wrap;html=1;boundedLbl=1;backgroundOutline=1;darkOpacity=0.05;darkOpacity2=0.1;direction=east;" parent="PtV35FxHj_mzIhpnfhA_-86" vertex="1">
          <mxGeometry x="97.2093023255814" y="120" width="122.79069767441861" height="80" as="geometry" />
        </mxCell>
        <mxCell id="PtV35FxHj_mzIhpnfhA_-93" value="Roll(t2)" style="shape=cube;whiteSpace=wrap;html=1;boundedLbl=1;backgroundOutline=1;darkOpacity=0.05;darkOpacity2=0.1;direction=east;" parent="PtV35FxHj_mzIhpnfhA_-86" vertex="1">
          <mxGeometry x="97.2093023255814" y="60" width="122.79069767441861" height="80" as="geometry" />
        </mxCell>
        <mxCell id="PtV35FxHj_mzIhpnfhA_-94" value="Roll(t1)" style="shape=cube;whiteSpace=wrap;html=1;boundedLbl=1;backgroundOutline=1;darkOpacity=0.05;darkOpacity2=0.1;direction=east;fillColor=#fff2cc;strokeColor=#d6b656;" parent="PtV35FxHj_mzIhpnfhA_-86" vertex="1">
          <mxGeometry x="97.2093023255814" width="122.79069767441861" height="80" as="geometry" />
        </mxCell>
        <mxCell id="PtV35FxHj_mzIhpnfhA_-95" value="W(tn)" style="shape=cube;whiteSpace=wrap;html=1;boundedLbl=1;backgroundOutline=1;darkOpacity=0.05;darkOpacity2=0.1;" parent="PtV35FxHj_mzIhpnfhA_-86" vertex="1">
          <mxGeometry y="420" width="122.79069767441861" height="80" as="geometry" />
        </mxCell>
        <mxCell id="PtV35FxHj_mzIhpnfhA_-96" value="" style="shape=cube;whiteSpace=wrap;html=1;boundedLbl=1;backgroundOutline=1;darkOpacity=0.05;darkOpacity2=0.1;" parent="PtV35FxHj_mzIhpnfhA_-86" vertex="1">
          <mxGeometry y="360" width="122.79069767441861" height="80" as="geometry" />
        </mxCell>
        <mxCell id="PtV35FxHj_mzIhpnfhA_-97" value="" style="shape=cube;whiteSpace=wrap;html=1;boundedLbl=1;backgroundOutline=1;darkOpacity=0.05;darkOpacity2=0.1;" parent="PtV35FxHj_mzIhpnfhA_-86" vertex="1">
          <mxGeometry y="300" width="122.79069767441861" height="80" as="geometry" />
        </mxCell>
        <mxCell id="PtV35FxHj_mzIhpnfhA_-98" value="" style="shape=cube;whiteSpace=wrap;html=1;boundedLbl=1;backgroundOutline=1;darkOpacity=0.05;darkOpacity2=0.1;" parent="PtV35FxHj_mzIhpnfhA_-86" vertex="1">
          <mxGeometry y="240" width="122.79069767441861" height="80" as="geometry" />
        </mxCell>
        <mxCell id="PtV35FxHj_mzIhpnfhA_-99" value="" style="shape=cube;whiteSpace=wrap;html=1;boundedLbl=1;backgroundOutline=1;darkOpacity=0.05;darkOpacity2=0.1;" parent="PtV35FxHj_mzIhpnfhA_-86" vertex="1">
          <mxGeometry y="180" width="122.79069767441861" height="80" as="geometry" />
        </mxCell>
        <mxCell id="PtV35FxHj_mzIhpnfhA_-100" value="" style="shape=cube;whiteSpace=wrap;html=1;boundedLbl=1;backgroundOutline=1;darkOpacity=0.05;darkOpacity2=0.1;" parent="PtV35FxHj_mzIhpnfhA_-86" vertex="1">
          <mxGeometry y="120" width="122.79069767441861" height="80" as="geometry" />
        </mxCell>
        <mxCell id="PtV35FxHj_mzIhpnfhA_-101" value="W(t2)" style="shape=cube;whiteSpace=wrap;html=1;boundedLbl=1;backgroundOutline=1;darkOpacity=0.05;darkOpacity2=0.1;" parent="PtV35FxHj_mzIhpnfhA_-86" vertex="1">
          <mxGeometry y="60" width="122.79069767441861" height="80" as="geometry" />
        </mxCell>
        <mxCell id="PtV35FxHj_mzIhpnfhA_-102" value="W(t1)" style="shape=cube;whiteSpace=wrap;html=1;boundedLbl=1;backgroundOutline=1;darkOpacity=0.05;darkOpacity2=0.1;fillColor=#d5e8d4;strokeColor=#82b366;" parent="PtV35FxHj_mzIhpnfhA_-86" vertex="1">
          <mxGeometry width="122.79069767441861" height="80" as="geometry" />
        </mxCell>
        <mxCell id="e40BAH5m5hKkYkhLz0NS-455" value="" style="shape=flexArrow;endArrow=classic;html=1;rounded=0;fontSize=40;endWidth=78.97959183673468;endSize=41.86666666666667;width=146.66666666666669;fillColor=#e1d5e7;strokeColor=#9673a6;" edge="1" parent="PtV35FxHj_mzIhpnfhA_-86">
          <mxGeometry width="50" height="50" relative="1" as="geometry">
            <mxPoint x="150" y="110" as="sourcePoint" />
            <mxPoint x="140" y="770" as="targetPoint" />
          </mxGeometry>
        </mxCell>
        <mxCell id="PtV35FxHj_mzIhpnfhA_-103" value="" style="group" parent="PtV35FxHj_mzIhpnfhA_-85" vertex="1" connectable="0">
          <mxGeometry width="215" height="500" as="geometry" />
        </mxCell>
        <mxCell id="PtV35FxHj_mzIhpnfhA_-104" value="V(tn)" style="shape=cube;whiteSpace=wrap;html=1;boundedLbl=1;backgroundOutline=1;darkOpacity=0.05;darkOpacity2=0.1;direction=east;" parent="PtV35FxHj_mzIhpnfhA_-103" vertex="1">
          <mxGeometry x="95" y="420" width="120" height="80" as="geometry" />
        </mxCell>
        <mxCell id="PtV35FxHj_mzIhpnfhA_-105" value="" style="shape=cube;whiteSpace=wrap;html=1;boundedLbl=1;backgroundOutline=1;darkOpacity=0.05;darkOpacity2=0.1;direction=east;" parent="PtV35FxHj_mzIhpnfhA_-103" vertex="1">
          <mxGeometry x="95" y="360" width="120" height="80" as="geometry" />
        </mxCell>
        <mxCell id="PtV35FxHj_mzIhpnfhA_-106" value="" style="shape=cube;whiteSpace=wrap;html=1;boundedLbl=1;backgroundOutline=1;darkOpacity=0.05;darkOpacity2=0.1;direction=east;" parent="PtV35FxHj_mzIhpnfhA_-103" vertex="1">
          <mxGeometry x="95" y="300" width="120" height="80" as="geometry" />
        </mxCell>
        <mxCell id="PtV35FxHj_mzIhpnfhA_-107" value="" style="shape=cube;whiteSpace=wrap;html=1;boundedLbl=1;backgroundOutline=1;darkOpacity=0.05;darkOpacity2=0.1;direction=east;" parent="PtV35FxHj_mzIhpnfhA_-103" vertex="1">
          <mxGeometry x="95" y="240" width="120" height="80" as="geometry" />
        </mxCell>
        <mxCell id="PtV35FxHj_mzIhpnfhA_-108" value="" style="shape=cube;whiteSpace=wrap;html=1;boundedLbl=1;backgroundOutline=1;darkOpacity=0.05;darkOpacity2=0.1;direction=east;" parent="PtV35FxHj_mzIhpnfhA_-103" vertex="1">
          <mxGeometry x="95" y="180" width="120" height="80" as="geometry" />
        </mxCell>
        <mxCell id="PtV35FxHj_mzIhpnfhA_-109" value="" style="shape=cube;whiteSpace=wrap;html=1;boundedLbl=1;backgroundOutline=1;darkOpacity=0.05;darkOpacity2=0.1;direction=east;" parent="PtV35FxHj_mzIhpnfhA_-103" vertex="1">
          <mxGeometry x="95" y="120" width="120" height="80" as="geometry" />
        </mxCell>
        <mxCell id="PtV35FxHj_mzIhpnfhA_-110" value="V(t2)" style="shape=cube;whiteSpace=wrap;html=1;boundedLbl=1;backgroundOutline=1;darkOpacity=0.05;darkOpacity2=0.1;direction=east;" parent="PtV35FxHj_mzIhpnfhA_-103" vertex="1">
          <mxGeometry x="95" y="60" width="120" height="80" as="geometry" />
        </mxCell>
        <mxCell id="PtV35FxHj_mzIhpnfhA_-111" value="V(t1)" style="shape=cube;whiteSpace=wrap;html=1;boundedLbl=1;backgroundOutline=1;darkOpacity=0.05;darkOpacity2=0.1;direction=east;fillColor=#d5e8d4;strokeColor=#82b366;" parent="PtV35FxHj_mzIhpnfhA_-103" vertex="1">
          <mxGeometry x="95" width="120" height="80" as="geometry" />
        </mxCell>
        <mxCell id="PtV35FxHj_mzIhpnfhA_-112" value="U(tn)" style="shape=cube;whiteSpace=wrap;html=1;boundedLbl=1;backgroundOutline=1;darkOpacity=0.05;darkOpacity2=0.1;" parent="PtV35FxHj_mzIhpnfhA_-103" vertex="1">
          <mxGeometry y="420" width="120" height="80" as="geometry" />
        </mxCell>
        <mxCell id="PtV35FxHj_mzIhpnfhA_-113" value="" style="shape=cube;whiteSpace=wrap;html=1;boundedLbl=1;backgroundOutline=1;darkOpacity=0.05;darkOpacity2=0.1;" parent="PtV35FxHj_mzIhpnfhA_-103" vertex="1">
          <mxGeometry y="360" width="120" height="80" as="geometry" />
        </mxCell>
        <mxCell id="PtV35FxHj_mzIhpnfhA_-114" value="" style="shape=cube;whiteSpace=wrap;html=1;boundedLbl=1;backgroundOutline=1;darkOpacity=0.05;darkOpacity2=0.1;" parent="PtV35FxHj_mzIhpnfhA_-103" vertex="1">
          <mxGeometry y="300" width="120" height="80" as="geometry" />
        </mxCell>
        <mxCell id="PtV35FxHj_mzIhpnfhA_-115" value="" style="shape=cube;whiteSpace=wrap;html=1;boundedLbl=1;backgroundOutline=1;darkOpacity=0.05;darkOpacity2=0.1;" parent="PtV35FxHj_mzIhpnfhA_-103" vertex="1">
          <mxGeometry y="240" width="120" height="80" as="geometry" />
        </mxCell>
        <mxCell id="PtV35FxHj_mzIhpnfhA_-116" value="" style="shape=cube;whiteSpace=wrap;html=1;boundedLbl=1;backgroundOutline=1;darkOpacity=0.05;darkOpacity2=0.1;" parent="PtV35FxHj_mzIhpnfhA_-103" vertex="1">
          <mxGeometry y="180" width="120" height="80" as="geometry" />
        </mxCell>
        <mxCell id="PtV35FxHj_mzIhpnfhA_-117" value="" style="shape=cube;whiteSpace=wrap;html=1;boundedLbl=1;backgroundOutline=1;darkOpacity=0.05;darkOpacity2=0.1;" parent="PtV35FxHj_mzIhpnfhA_-103" vertex="1">
          <mxGeometry y="120" width="120" height="80" as="geometry" />
        </mxCell>
        <mxCell id="PtV35FxHj_mzIhpnfhA_-118" value="U(t2)" style="shape=cube;whiteSpace=wrap;html=1;boundedLbl=1;backgroundOutline=1;darkOpacity=0.05;darkOpacity2=0.1;" parent="PtV35FxHj_mzIhpnfhA_-103" vertex="1">
          <mxGeometry y="60" width="120" height="80" as="geometry" />
        </mxCell>
        <mxCell id="PtV35FxHj_mzIhpnfhA_-119" value="U(t1)" style="shape=cube;whiteSpace=wrap;html=1;boundedLbl=1;backgroundOutline=1;darkOpacity=0.05;darkOpacity2=0.1;fillColor=#d5e8d4;strokeColor=#82b366;" parent="PtV35FxHj_mzIhpnfhA_-103" vertex="1">
          <mxGeometry width="120" height="80" as="geometry" />
        </mxCell>
        <mxCell id="PtV35FxHj_mzIhpnfhA_-84" value="" style="group" parent="e40BAH5m5hKkYkhLz0NS-71" vertex="1" connectable="0">
          <mxGeometry width="410" height="500" as="geometry" />
        </mxCell>
        <mxCell id="PtV35FxHj_mzIhpnfhA_-67" value="" style="group" parent="PtV35FxHj_mzIhpnfhA_-84" vertex="1" connectable="0">
          <mxGeometry x="190" width="220" height="500" as="geometry" />
        </mxCell>
        <mxCell id="PtV35FxHj_mzIhpnfhA_-68" value="Az(tn)" style="shape=cube;whiteSpace=wrap;html=1;boundedLbl=1;backgroundOutline=1;darkOpacity=0.05;darkOpacity2=0.1;direction=east;" parent="PtV35FxHj_mzIhpnfhA_-67" vertex="1">
          <mxGeometry x="97.2093023255814" y="420" width="122.79069767441861" height="80" as="geometry" />
        </mxCell>
        <mxCell id="PtV35FxHj_mzIhpnfhA_-69" value="" style="shape=cube;whiteSpace=wrap;html=1;boundedLbl=1;backgroundOutline=1;darkOpacity=0.05;darkOpacity2=0.1;direction=east;" parent="PtV35FxHj_mzIhpnfhA_-67" vertex="1">
          <mxGeometry x="97.2093023255814" y="360" width="122.79069767441861" height="80" as="geometry" />
        </mxCell>
        <mxCell id="PtV35FxHj_mzIhpnfhA_-70" value="" style="shape=cube;whiteSpace=wrap;html=1;boundedLbl=1;backgroundOutline=1;darkOpacity=0.05;darkOpacity2=0.1;direction=east;" parent="PtV35FxHj_mzIhpnfhA_-67" vertex="1">
          <mxGeometry x="97.2093023255814" y="300" width="122.79069767441861" height="80" as="geometry" />
        </mxCell>
        <mxCell id="PtV35FxHj_mzIhpnfhA_-71" value="" style="shape=cube;whiteSpace=wrap;html=1;boundedLbl=1;backgroundOutline=1;darkOpacity=0.05;darkOpacity2=0.1;direction=east;" parent="PtV35FxHj_mzIhpnfhA_-67" vertex="1">
          <mxGeometry x="97.2093023255814" y="240" width="122.79069767441861" height="80" as="geometry" />
        </mxCell>
        <mxCell id="PtV35FxHj_mzIhpnfhA_-72" value="" style="shape=cube;whiteSpace=wrap;html=1;boundedLbl=1;backgroundOutline=1;darkOpacity=0.05;darkOpacity2=0.1;direction=east;" parent="PtV35FxHj_mzIhpnfhA_-67" vertex="1">
          <mxGeometry x="97.2093023255814" y="180" width="122.79069767441861" height="80" as="geometry" />
        </mxCell>
        <mxCell id="PtV35FxHj_mzIhpnfhA_-73" value="" style="shape=cube;whiteSpace=wrap;html=1;boundedLbl=1;backgroundOutline=1;darkOpacity=0.05;darkOpacity2=0.1;direction=east;" parent="PtV35FxHj_mzIhpnfhA_-67" vertex="1">
          <mxGeometry x="97.2093023255814" y="120" width="122.79069767441861" height="80" as="geometry" />
        </mxCell>
        <mxCell id="PtV35FxHj_mzIhpnfhA_-74" value="Az(t2)" style="shape=cube;whiteSpace=wrap;html=1;boundedLbl=1;backgroundOutline=1;darkOpacity=0.05;darkOpacity2=0.1;direction=east;fillColor=#f8cecc;strokeColor=#b85450;" parent="PtV35FxHj_mzIhpnfhA_-67" vertex="1">
          <mxGeometry x="97.2093023255814" y="60" width="122.79069767441861" height="80" as="geometry" />
        </mxCell>
        <mxCell id="PtV35FxHj_mzIhpnfhA_-75" value="Az(t1)" style="shape=cube;whiteSpace=wrap;html=1;boundedLbl=1;backgroundOutline=1;darkOpacity=0.05;darkOpacity2=0.1;direction=east;fillColor=#f8cecc;strokeColor=#b85450;" parent="PtV35FxHj_mzIhpnfhA_-67" vertex="1">
          <mxGeometry x="97.2093023255814" width="122.79069767441861" height="80" as="geometry" />
        </mxCell>
        <mxCell id="PtV35FxHj_mzIhpnfhA_-76" value="Ay(tn)" style="shape=cube;whiteSpace=wrap;html=1;boundedLbl=1;backgroundOutline=1;darkOpacity=0.05;darkOpacity2=0.1;" parent="PtV35FxHj_mzIhpnfhA_-67" vertex="1">
          <mxGeometry y="420" width="122.79069767441861" height="80" as="geometry" />
        </mxCell>
        <mxCell id="PtV35FxHj_mzIhpnfhA_-77" value="" style="shape=cube;whiteSpace=wrap;html=1;boundedLbl=1;backgroundOutline=1;darkOpacity=0.05;darkOpacity2=0.1;" parent="PtV35FxHj_mzIhpnfhA_-67" vertex="1">
          <mxGeometry y="360" width="122.79069767441861" height="80" as="geometry" />
        </mxCell>
        <mxCell id="PtV35FxHj_mzIhpnfhA_-78" value="" style="shape=cube;whiteSpace=wrap;html=1;boundedLbl=1;backgroundOutline=1;darkOpacity=0.05;darkOpacity2=0.1;" parent="PtV35FxHj_mzIhpnfhA_-67" vertex="1">
          <mxGeometry y="300" width="122.79069767441861" height="80" as="geometry" />
        </mxCell>
        <mxCell id="PtV35FxHj_mzIhpnfhA_-79" value="" style="shape=cube;whiteSpace=wrap;html=1;boundedLbl=1;backgroundOutline=1;darkOpacity=0.05;darkOpacity2=0.1;" parent="PtV35FxHj_mzIhpnfhA_-67" vertex="1">
          <mxGeometry y="240" width="122.79069767441861" height="80" as="geometry" />
        </mxCell>
        <mxCell id="PtV35FxHj_mzIhpnfhA_-80" value="" style="shape=cube;whiteSpace=wrap;html=1;boundedLbl=1;backgroundOutline=1;darkOpacity=0.05;darkOpacity2=0.1;" parent="PtV35FxHj_mzIhpnfhA_-67" vertex="1">
          <mxGeometry y="180" width="122.79069767441861" height="80" as="geometry" />
        </mxCell>
        <mxCell id="PtV35FxHj_mzIhpnfhA_-81" value="" style="shape=cube;whiteSpace=wrap;html=1;boundedLbl=1;backgroundOutline=1;darkOpacity=0.05;darkOpacity2=0.1;" parent="PtV35FxHj_mzIhpnfhA_-67" vertex="1">
          <mxGeometry y="120" width="122.79069767441861" height="80" as="geometry" />
        </mxCell>
        <mxCell id="PtV35FxHj_mzIhpnfhA_-82" value="Ay(t2)" style="shape=cube;whiteSpace=wrap;html=1;boundedLbl=1;backgroundOutline=1;darkOpacity=0.05;darkOpacity2=0.1;fillColor=#f8cecc;strokeColor=#b85450;" parent="PtV35FxHj_mzIhpnfhA_-67" vertex="1">
          <mxGeometry x="2.79" y="60" width="120" height="80" as="geometry" />
        </mxCell>
        <mxCell id="PtV35FxHj_mzIhpnfhA_-83" value="Ay(t1)" style="shape=cube;whiteSpace=wrap;html=1;boundedLbl=1;backgroundOutline=1;darkOpacity=0.05;darkOpacity2=0.1;fillColor=#f8cecc;strokeColor=#b85450;" parent="PtV35FxHj_mzIhpnfhA_-67" vertex="1">
          <mxGeometry width="122.79069767441861" height="80" as="geometry" />
        </mxCell>
        <mxCell id="PtV35FxHj_mzIhpnfhA_-66" value="" style="group" parent="PtV35FxHj_mzIhpnfhA_-84" vertex="1" connectable="0">
          <mxGeometry width="215" height="500" as="geometry" />
        </mxCell>
        <mxCell id="PtV35FxHj_mzIhpnfhA_-38" value="Ax(tn)" style="shape=cube;whiteSpace=wrap;html=1;boundedLbl=1;backgroundOutline=1;darkOpacity=0.05;darkOpacity2=0.1;direction=east;" parent="PtV35FxHj_mzIhpnfhA_-66" vertex="1">
          <mxGeometry x="95" y="420" width="120" height="80" as="geometry" />
        </mxCell>
        <mxCell id="PtV35FxHj_mzIhpnfhA_-39" value="" style="shape=cube;whiteSpace=wrap;html=1;boundedLbl=1;backgroundOutline=1;darkOpacity=0.05;darkOpacity2=0.1;direction=east;" parent="PtV35FxHj_mzIhpnfhA_-66" vertex="1">
          <mxGeometry x="95" y="360" width="120" height="80" as="geometry" />
        </mxCell>
        <mxCell id="PtV35FxHj_mzIhpnfhA_-40" value="" style="shape=cube;whiteSpace=wrap;html=1;boundedLbl=1;backgroundOutline=1;darkOpacity=0.05;darkOpacity2=0.1;direction=east;" parent="PtV35FxHj_mzIhpnfhA_-66" vertex="1">
          <mxGeometry x="95" y="300" width="120" height="80" as="geometry" />
        </mxCell>
        <mxCell id="PtV35FxHj_mzIhpnfhA_-41" value="" style="shape=cube;whiteSpace=wrap;html=1;boundedLbl=1;backgroundOutline=1;darkOpacity=0.05;darkOpacity2=0.1;direction=east;" parent="PtV35FxHj_mzIhpnfhA_-66" vertex="1">
          <mxGeometry x="95" y="240" width="120" height="80" as="geometry" />
        </mxCell>
        <mxCell id="PtV35FxHj_mzIhpnfhA_-42" value="" style="shape=cube;whiteSpace=wrap;html=1;boundedLbl=1;backgroundOutline=1;darkOpacity=0.05;darkOpacity2=0.1;direction=east;" parent="PtV35FxHj_mzIhpnfhA_-66" vertex="1">
          <mxGeometry x="95" y="180" width="120" height="80" as="geometry" />
        </mxCell>
        <mxCell id="PtV35FxHj_mzIhpnfhA_-43" value="" style="shape=cube;whiteSpace=wrap;html=1;boundedLbl=1;backgroundOutline=1;darkOpacity=0.05;darkOpacity2=0.1;direction=east;" parent="PtV35FxHj_mzIhpnfhA_-66" vertex="1">
          <mxGeometry x="95" y="120" width="120" height="80" as="geometry" />
        </mxCell>
        <mxCell id="PtV35FxHj_mzIhpnfhA_-44" value="Ax(t2)" style="shape=cube;whiteSpace=wrap;html=1;boundedLbl=1;backgroundOutline=1;darkOpacity=0.05;darkOpacity2=0.1;direction=east;fillColor=#f8cecc;strokeColor=#b85450;" parent="PtV35FxHj_mzIhpnfhA_-66" vertex="1">
          <mxGeometry x="95" y="60" width="120" height="80" as="geometry" />
        </mxCell>
        <mxCell id="PtV35FxHj_mzIhpnfhA_-45" value="Ax(t1)" style="shape=cube;whiteSpace=wrap;html=1;boundedLbl=1;backgroundOutline=1;darkOpacity=0.05;darkOpacity2=0.1;direction=east;fillColor=#f8cecc;strokeColor=#b85450;" parent="PtV35FxHj_mzIhpnfhA_-66" vertex="1">
          <mxGeometry x="95" width="120" height="80" as="geometry" />
        </mxCell>
        <mxCell id="PtV35FxHj_mzIhpnfhA_-24" value="tn" style="shape=cube;whiteSpace=wrap;html=1;boundedLbl=1;backgroundOutline=1;darkOpacity=0.05;darkOpacity2=0.1;" parent="PtV35FxHj_mzIhpnfhA_-66" vertex="1">
          <mxGeometry y="420" width="120" height="80" as="geometry" />
        </mxCell>
        <mxCell id="PtV35FxHj_mzIhpnfhA_-25" value="" style="shape=cube;whiteSpace=wrap;html=1;boundedLbl=1;backgroundOutline=1;darkOpacity=0.05;darkOpacity2=0.1;" parent="PtV35FxHj_mzIhpnfhA_-66" vertex="1">
          <mxGeometry y="360" width="120" height="80" as="geometry" />
        </mxCell>
        <mxCell id="PtV35FxHj_mzIhpnfhA_-26" value="" style="shape=cube;whiteSpace=wrap;html=1;boundedLbl=1;backgroundOutline=1;darkOpacity=0.05;darkOpacity2=0.1;" parent="PtV35FxHj_mzIhpnfhA_-66" vertex="1">
          <mxGeometry y="300" width="120" height="80" as="geometry" />
        </mxCell>
        <mxCell id="PtV35FxHj_mzIhpnfhA_-27" value="" style="shape=cube;whiteSpace=wrap;html=1;boundedLbl=1;backgroundOutline=1;darkOpacity=0.05;darkOpacity2=0.1;" parent="PtV35FxHj_mzIhpnfhA_-66" vertex="1">
          <mxGeometry y="240" width="120" height="80" as="geometry" />
        </mxCell>
        <mxCell id="PtV35FxHj_mzIhpnfhA_-21" value="" style="shape=cube;whiteSpace=wrap;html=1;boundedLbl=1;backgroundOutline=1;darkOpacity=0.05;darkOpacity2=0.1;" parent="PtV35FxHj_mzIhpnfhA_-66" vertex="1">
          <mxGeometry y="180" width="120" height="80" as="geometry" />
        </mxCell>
        <mxCell id="PtV35FxHj_mzIhpnfhA_-22" value="" style="shape=cube;whiteSpace=wrap;html=1;boundedLbl=1;backgroundOutline=1;darkOpacity=0.05;darkOpacity2=0.1;" parent="PtV35FxHj_mzIhpnfhA_-66" vertex="1">
          <mxGeometry y="120" width="120" height="80" as="geometry" />
        </mxCell>
        <mxCell id="PtV35FxHj_mzIhpnfhA_-20" value="t2" style="shape=cube;whiteSpace=wrap;html=1;boundedLbl=1;backgroundOutline=1;darkOpacity=0.05;darkOpacity2=0.1;fillColor=#dae8fc;strokeColor=#6c8ebf;" parent="PtV35FxHj_mzIhpnfhA_-66" vertex="1">
          <mxGeometry y="60" width="120" height="80" as="geometry" />
        </mxCell>
        <mxCell id="PtV35FxHj_mzIhpnfhA_-3" value="t1" style="shape=cube;whiteSpace=wrap;html=1;boundedLbl=1;backgroundOutline=1;darkOpacity=0.05;darkOpacity2=0.1;fillColor=#dae8fc;strokeColor=#6c8ebf;" parent="PtV35FxHj_mzIhpnfhA_-66" vertex="1">
          <mxGeometry width="120" height="80" as="geometry" />
        </mxCell>
        <mxCell id="e40BAH5m5hKkYkhLz0NS-451" value="" style="shape=curlyBracket;whiteSpace=wrap;html=1;rounded=1;labelPosition=left;verticalLabelPosition=middle;align=right;verticalAlign=middle;fontSize=40;fillColor=#1A1A1A;opacity=10;perimeterSpacing=4;" vertex="1" parent="1">
          <mxGeometry x="-1200" y="-970" width="20" height="120" as="geometry" />
        </mxCell>
        <mxCell id="e40BAH5m5hKkYkhLz0NS-457" value="" style="shape=curlyBracket;whiteSpace=wrap;html=1;rounded=1;labelPosition=left;verticalLabelPosition=middle;align=right;verticalAlign=middle;fontSize=40;fillColor=#1A1A1A;opacity=10;" vertex="1" parent="1">
          <mxGeometry x="-1420" y="-850" width="20" height="120" as="geometry" />
        </mxCell>
        <mxCell id="e40BAH5m5hKkYkhLz0NS-460" value="" style="shape=curlyBracket;whiteSpace=wrap;html=1;rounded=1;labelPosition=left;verticalLabelPosition=middle;align=right;verticalAlign=middle;fontSize=40;fillColor=#1A1A1A;gradientColor=none;strokeWidth=4;size=0.5;rotation=90;" vertex="1" parent="1">
          <mxGeometry x="-575" y="-1075" width="70" height="1290" as="geometry" />
        </mxCell>
      </root>
    </mxGraphModel>
  </diagram>
</mxfile>
